<?xml version="1.0" encoding="UTF-8"?>
<svg width="36px" height="37px" viewBox="0 0 36 37" version="1.1" xmlns="http://www.w3.org/2000/svg" xmlns:xlink="http://www.w3.org/1999/xlink">
    <title>dark-mode</title>
    <g id="Page-1" stroke="none" stroke-width="1" fill="none" fill-rule="evenodd">
        <g id="dark-mode">
            <path d="M34,0.5 C34.4142136,0.5 34.7892136,0.667893219 35.0606602,0.939339828 C35.3321068,1.21078644 35.5,1.58578644 35.5,2 L35.5,2 L35.5,5.5 L0.5,5.5 L0.5,2 C0.5,1.58578644 0.667893219,1.21078644 0.939339828,0.939339828 C1.21078644,0.667893219 1.58578644,0.5 2,0.5 L2,0.5 Z" id="Rectangle" stroke="#979797" fill="#D8D8D8"></path>
            <g id="Group-3" transform="translate(0.000000, 5.000000)">
                <path d="M35.5,0.5 L35.5,29 C35.5,29.4142136 35.3321068,29.7892136 35.0606602,30.0606602 C34.7892136,30.3321068 34.4142136,30.5 34,30.5 L34,30.5 L2,30.5 C1.58578644,30.5 1.21078644,30.3321068 0.939339828,30.0606602 C0.667893219,29.7892136 0.5,29.4142136 0.5,29 L0.5,29 L0.5,0.5 L35.5,0.5 Z" id="Rectangle" stroke="#979797" fill="#20353D"></path>
                <g id="moon" transform="translate(2.553452, 4.000000)">
                    <polygon id="Star" fill="#FEDE56" points="2.94654774 20.7121833 2.48302225 20.9265848 2.23404429 20.4806769 1.73302225 20.3816779 1.79369294 19.8745852 1.44654774 19.5 1.79369294 19.1254148 1.73302225 18.6183221 2.23404429 18.5193231 2.48302225 18.0734152 2.94654774 18.2878167 3.41007323 18.0734152 3.65905119 18.5193231 4.16007323 18.6183221 4.09940254 19.1254148 4.44654774 19.5 4.09940254 19.8745852 4.16007323 20.3816779 3.65905119 20.4806769 3.41007323 20.9265848"></polygon>
                    <polygon id="Star" fill="#FEDE56" points="27.9465477 22.7121833 27.4830222 22.9265848 27.2340443 22.4806769 26.7330222 22.3816779 26.7936929 21.8745852 26.4465477 21.5 26.7936929 21.1254148 26.7330222 20.6183221 27.2340443 20.5193231 27.4830222 20.0734152 27.9465477 20.2878167 28.4100732 20.0734152 28.6590512 20.5193231 29.1600732 20.6183221 29.0994025 21.1254148 29.4465477 21.5 29.0994025 21.8745852 29.1600732 22.3816779 28.6590512 22.4806769 28.4100732 22.9265848"></polygon>
                    <polygon id="Star" fill="#FEDE56" points="26.4465477 3.61624436 25.8285138 3.90211303 25.4965431 3.30756916 24.8285138 3.1755705 24.909408 2.49944697 24.4465477 2 24.909408 1.50055303 24.8285138 0.824429495 25.4965431 0.692430844 25.8285138 0.0978869674 26.4465477 0.383755638 27.0645817 0.0978869674 27.3965523 0.692430844 28.0645817 0.824429495 27.9836875 1.50055303 28.4465477 2 27.9836875 2.49944697 28.0645817 3.1755705 27.3965523 3.30756916 27.0645817 3.90211303"></polygon>
                    <g transform="translate(0.000000, 0.513181)" id="Oval">
                        <circle fill="#D0D2DF" cx="15.4465477" cy="11.4868191" r="11.1515152"></circle>
                        <path d="M20.0349892,23.8573504 C12.7534885,26.5772663 5.4458239,11.1336132 15.631722,2.34466086 C9.47291025,2.34466086 4.83355394,7.47683646 4.83355394,13.6356482 C4.83355394,19.79446 11.4855936,26.9366243 20.0349892,23.8573504 Z" fill="#ACAEBA" transform="translate(12.434272, 13.470880) rotate(-33.000000) translate(-12.434272, -13.470880) "></path>
                    </g>
                </g>
            </g>
        </g>
    </g>
</svg>