<?xml version="1.0" encoding="UTF-8"?>
<svg width="36px" height="36px" viewBox="0 0 36 36" version="1.1" xmlns="http://www.w3.org/2000/svg" xmlns:xlink="http://www.w3.org/1999/xlink">
    <title>light-mode</title>
    <g id="Page-1" stroke="none" stroke-width="1" fill="none" fill-rule="evenodd">
        <g id="light-mode">
            <path d="M34,0.5 C34.4142136,0.5 34.7892136,0.667893219 35.0606602,0.939339828 C35.3321068,1.21078644 35.5,1.58578644 35.5,2 L35.5,2 L35.5,5.5 L0.5,5.5 L0.5,2 C0.5,1.58578644 0.667893219,1.21078644 0.939339828,0.939339828 C1.21078644,0.667893219 1.58578644,0.5 2,0.5 L2,0.5 Z" id="Rectangle" stroke="#979797" fill="#D8D8D8"></path>
            <g id="Group-3" transform="translate(0.000000, 5.000000)">
                <path d="M35.5,0.5 L35.5,29 C35.5,29.4142136 35.3321068,29.7892136 35.0606602,30.0606602 C34.7892136,30.3321068 34.4142136,30.5 34,30.5 L34,30.5 L2,30.5 C1.58578644,30.5 1.21078644,30.3321068 0.939339828,30.0606602 C0.667893219,29.7892136 0.5,29.4142136 0.5,29 L0.5,29 L0.5,0.5 L35.5,0.5 Z" id="Rectangle" stroke="#979797" fill="#C7EFFF"></path>
                <g id="Group-2" transform="translate(2.000000, 1.401153)">
                    <g id="sun">
                        <path d="M19.3882693,0.753869026 L21.3389695,4.51236212 L25.4937195,3.6940989 L25.6204907,7.9267613 L29.7188221,8.99221005 L27.9965556,12.8607111 L31.2267438,15.5988466 L27.9965556,18.3369821 L29.7188221,22.2054831 L25.6204907,23.2709319 L25.4937195,27.5035943 L21.6024448,26.7372216 L16,28.0159431 L10.3975552,26.7372216 L6.50628051,27.5035943 L6.37950933,23.2709319 L2.28117785,22.2054831 L4.00344435,18.3369821 L0.773256173,15.5988466 L4.00344435,12.8607111 L2.28117785,8.99221005 L6.37950933,7.9267613 L6.50628051,3.6940989 L10.6610305,4.51236212 L12.6117307,0.753869026 L16,3.29377717 L19.3882693,0.753869026 Z" id="Star" stroke="#979797" fill="#FEDE56"></path>
                        <g id="Group" transform="translate(4.848485, 4.447331)">
                            <circle id="Oval" fill="#FDC202" cx="11.1515152" cy="11.1515152" r="11.1515152"></circle>
                            <path d="M11.1515152,22.3030303 C5.57575758,18.4349792 -0.978714223,10.5586119 11.1515152,0 C4.9927034,0 0,4.9927034 0,11.1515152 C0,17.3103269 4.9927034,22.3030303 11.1515152,22.3030303 Z" id="Oval" fill="#F0A70C"></path>
                        </g>
                    </g>
                    <path d="M24.5,18.0988466 C25.5312445,18.0988466 26.4713682,18.489058 27.1806811,19.1299684 C27.8968984,19.7771174 28.37809,20.6797243 28.4798341,21.6943045 C29.3961005,22.2343895 29.8397923,22.5309716 30.1319841,22.9423725 C31.1653682,23.131553 31.6562015,23.2734832 31.9966752,23.5427767 C32.3259476,23.8032106 32.5,24.1811182 32.5,24.5988466 C32.5,25.0971332 32.3954557,25.4858689 32.1972332,25.7501656 C32.0232386,25.9821583 31.775251,26.0988466 31.5,26.0988466 L31.5,26.0988466 L17.5,26.0988466 C16.8655861,26.0988466 16.3587203,25.9423503 16.0090119,25.6625836 C15.6756066,25.3958594 15.5,25.0177452 15.5,24.5988466 C15.5,24.184633 15.6678932,23.809633 15.9393398,23.5381864 C16.2107864,23.2667398 16.5857864,23.0988466 17,23.0988466 C17.8461162,22.4688674 18.3757181,22.0988466 19,22.0988466 C19.2749338,22.0988466 19.5326551,22.1726618 19.7542083,22.3018691 L19.7542083,22.3018691 L20.464466,22.7160829 L20.5054748,21.8948903 C20.5584025,20.8350228 21.0241743,19.8839694 21.7450079,19.198873 C22.462286,18.5171559 23.4322978,18.0988466 24.5,18.0988466 Z" id="cloud" stroke="#979797" fill="#FFFFFF"></path>
                    <path d="M14,16.0988466 C15.5982863,16.0988466 17.0618795,16.6756494 18.1938317,17.6325868 C19.3433912,18.6044093 20.1512803,19.9680459 20.4105693,21.5176697 C21.6064841,21.9338937 22.239713,22.1434005 22.7481696,22.5033893 C23.2707943,22.8734092 23.6609175,23.4015547 23.8577428,24.0162335 C23.9129077,24.1885116 23.9517643,24.3640765 23.9744923,24.5407754 C24.1335642,24.4562648 24.2980353,24.3914075 24.464413,24.3464285 C24.6607775,24.2933429 24.8687996,24.2655133 25.0833333,24.2655133 C25.7506774,24.2655133 26.3548441,24.5360079 26.7921747,24.9733385 C27.2295054,25.4106692 27.5,26.0148359 27.5,26.6821799 C27.5,27.349524 27.2295054,27.9536907 26.7921747,28.3910213 C26.3548441,28.828352 25.7506774,29.0988466 25.0833333,29.0988466 L25.0833333,29.0988466 L3.5,29.0988466 C2.57648074,29.0988466 1.82726903,28.8450762 1.30494904,28.4098095 C0.783425227,27.9752064 0.5,27.3616489 0.5,26.6821799 C0.5,26.0148359 0.77049463,25.4106692 1.20782528,24.9733385 C1.64515593,24.5360079 2.24932259,24.2655133 2.91666667,24.2655133 C3.21905384,24.2655133 3.50850545,24.320908 3.77531788,24.4223554 C4.80312362,23.5472148 5.55752272,23.0988466 6.41666667,23.0988466 L6.41666667,23.0988466 L7.50228922,23.2697829 L7.50198021,22.6573409 C7.50106163,20.8368001 8.22541167,19.1988633 9.39898039,18.0151107 C10.5752252,16.8286588 12.202398,16.0988466 14,16.0988466 Z" id="cloud" stroke="#979797" fill="#FFFFFF"></path>
                </g>
            </g>
        </g>
    </g>
</svg>