<?xml version="1.0" encoding="UTF-8"?>
<svg width="34px" height="34px" viewBox="0 0 34 34" version="1.1" xmlns="http://www.w3.org/2000/svg" xmlns:xlink="http://www.w3.org/1999/xlink">
    <title>switch</title>
    <g id="Page-1" stroke="none" stroke-width="1" fill="none" fill-rule="evenodd" opacity="0.95">
        <path d="M30.6942774,8.67710757 C33.2778609,13.2274949 33.6851715,17.9100039 31.9505819,22.7815585 C29.8813206,27.8004713 26.2704336,31.027054 21.1002507,32.5073649 C14.7690443,33.9129083 9.42304614,32.2948925 5.00247529,27.6711411 C1.31849412,23.2286915 0.186541231,18.2531905 1.56220758,12.6910764 C3.06047671,7.73671355 6.15130801,4.26031529 10.8483117,2.21220643 C12.456045,1.57541566 14.0782106,1.18128699 15.7464786,1.01618594 C22.2292278,0.801281302 27.1890331,3.35799892 30.6942774,8.67710757 Z M11.217189,10.9047749 L11.1458869,10.904088 C11.0986477,10.9289794 11.0519118,10.9560059 11.0056451,10.9851068 C9.81295588,12.2766025 9.04013953,13.6631248 8.70626653,15.1540819 C8.36805396,16.664418 8.48168185,18.2747098 9.02454201,19.9855254 C9.77989514,21.7252516 10.8128703,23.0663626 12.1435801,23.9918358 C13.4742179,24.9172589 15.0949788,25.4220959 16.9965056,25.531664 C18.8324525,25.4353085 20.4095667,24.9601904 21.7198221,24.0833429 C23.030275,23.2063633 24.0669845,21.9318478 24.8478409,20.2758362 C25.4497724,18.6133256 25.6279234,17.0291519 25.3608915,15.5220412 C25.0919589,14.0042033 24.3725826,12.5714972 23.2226237,11.2150609 C23.2155348,11.2066991 23.2084402,11.198353 23.2013402,11.1900225 L23.2013402,11.1900225 L23.1838363,11.1663081 L23.1284856,11.097306 C23.0717831,11.0324005 23.0102454,10.9808638 22.9368546,10.9524007 C22.8617639,10.9232783 22.7795389,10.9203212 22.6916358,10.9308154 C22.5964313,10.9711155 22.514752,11.016596 22.4770769,11.0961473 C22.4404661,11.1734516 22.4518123,11.2628253 22.4772911,11.3597472 C22.6177528,11.5660549 22.7844054,11.7517687 22.9769348,11.9171265 C23.0034099,11.9398653 23.0301917,11.9620622 23.0572806,11.9837164 C23.0826703,12.0174954 23.1079361,12.0516854 23.133085,12.0861373 C24.1003157,13.4111585 24.6459945,14.7828068 24.7906691,16.1936541 C24.9352449,17.6035368 24.6799796,19.059627 24.0029128,20.5588044 C23.9977472,20.5702422 23.9925672,20.58166 23.9873729,20.5930576 C23.9800783,20.6070178 23.9724785,20.6207107 23.9648396,20.6344034 C22.4569283,23.3373203 20.1457037,24.7442647 17.0282381,24.8504359 C17.01568,24.8508636 17.0031334,24.8512693 16.9905985,24.8516531 C16.9774832,24.851178 16.9647574,24.8506631 16.9520196,24.8501253 C15.3342183,24.7818234 13.9405669,24.3630601 12.7640354,23.6147638 C11.586047,22.865541 10.6196977,21.7823665 9.88056311,20.3504576 C9.8726683,20.3351632 9.86482094,20.3198707 9.857021,20.3045801 C9.85029563,20.2879227 9.84364319,20.2709154 9.83702076,20.2538672 C9.17542356,18.5507124 9.01029019,16.9465321 9.31090072,15.4431924 C9.60005878,13.9971259 10.3218741,12.6348517 11.5004774,11.3682531 C11.5228718,11.2771895 11.5236544,11.1850717 11.3470174,10.9377575 C11.2868208,10.9082678 11.2190887,10.9007379 11.1458869,10.904088 Z M17.1654286,8.590298 C17.0972961,8.53810142 17.0115872,8.51681118 16.7781752,8.59070837 C16.7305998,8.63965239 16.7028199,8.7039017 16.6829301,8.77674747 C16.6438729,10.637734 16.6435697,12.498874 16.6820186,14.3600746 C16.7109796,14.4306504 16.7504406,14.4946316 16.8002387,14.5521981 C16.9158943,14.6025056 17.0230837,14.6347157 17.1182134,14.5951927 C17.211877,14.5562789 17.2627162,14.4587848 17.3067223,14.3433852 C17.3446008,12.4990449 17.3444175,10.6545602 17.3061726,8.81001638 C17.2745737,8.71953564 17.2332549,8.64225992 17.1654286,8.590298 Z" id="switch" stroke="#FFFFFF" stroke-width="2" fill="#000000"></path>
    </g>
</svg>