<?xml version="1.0" encoding="UTF-8"?>
<svg width="30px" height="30px" viewBox="0 0 30 30" version="1.1" xmlns="http://www.w3.org/2000/svg" xmlns:xlink="http://www.w3.org/1999/xlink">
    <title>appearance</title>
    <g id="Page-1" stroke="none" stroke-width="1" fill="none" fill-rule="evenodd">
        <g id="appearance">
            <path d="M1.0546875,0 C3.67187695,0 6.28904297,0 8.90625,0 C9.47625,0.189442383 9.83759766,0.580066992 9.99023438,1.171875 C10.0097461,2.85156445 10.0293164,4.53124805 10.0488281,6.2109375 C10.8543164,4.77558984 11.6746289,3.34981055 12.5097656,1.93359375 C13.1229492,1.3109707 13.8162891,1.20355078 14.5898438,1.61132812 C16.640625,2.80273242 18.6914062,3.99414258 20.7421875,5.18554688 C21.247207,5.63975391 21.4132031,6.19640625 21.2402344,6.85546875 C20.452793,8.30337891 19.642207,9.73892578 18.8085938,11.1621094 C20.1941602,10.4003906 21.5808984,9.61910156 22.96875,8.81835938 C23.7810938,8.53130859 24.4354102,8.73638672 24.9316406,9.43359375 C26.1582422,11.5548633 27.3691406,13.68375 28.5644531,15.8203125 C28.7377148,16.4771484 28.5716602,17.0337891 28.0664062,17.4902344 C26.6501953,18.3253711 25.2244336,19.1456836 23.7890625,19.9511719 C25.4687695,19.9706836 27.148418,19.9902539 28.828125,20.0097656 C29.418457,20.1608203 29.809043,20.5221094 30,21.09375 C30,23.710957 30,26.3281055 30,28.9453125 C29.7851367,29.4335742 29.4335742,29.7851367 28.9453125,30 C19.648418,30 10.351582,30 1.0546875,30 C0.566406445,29.7851367 0.214843945,29.4335742 0,28.9453125 C0,19.648418 0,10.351582 0,1.0546875 C0.214843945,0.566406445 0.566406445,0.214843945 1.0546875,0 Z" id="Shape" fill-opacity="0.25" fill="#000000" opacity="0.945"></path>
            <path d="M1.34765625,21.0351563 C3.55468604,21.0351563 5.7617168,21.0351563 7.96875,21.0351563 C7.96875,23.671875 7.96875,26.3085938 7.96875,28.9453125 C5.74209961,28.9550977 3.51553711,28.9453125 1.2890625,28.9160156 C1.22070117,28.8476367 1.1523457,28.7793164 1.08398437,28.7109375 C1.04491992,26.25 1.04491992,23.7890625 1.08398437,21.328125 C1.14404297,21.1999805 1.23193359,21.1023047 1.34765625,21.0351563 Z" id="Path" fill="#FFFFFF"></path>
            <path d="M1.0546875,0 C3.67187695,0 6.28904297,0 8.90625,0 C9.47625,0.189442383 9.83759766,0.580066992 9.99023438,1.171875 C10.0097461,2.85156445 10.0293164,4.53124805 10.0488281,6.2109375 C10.8543164,4.77558984 11.6746289,3.34981055 12.5097656,1.93359375 C13.1229492,1.3109707 13.8162891,1.20355078 14.5898438,1.61132812 C16.640625,2.80273242 18.6914062,3.99414258 20.7421875,5.18554688 C21.247207,5.63975391 21.4132031,6.19640625 21.2402344,6.85546875 C20.452793,8.30337891 19.642207,9.73892578 18.8085938,11.1621094 C20.1941602,10.4003906 21.5808984,9.61910156 22.96875,8.81835938 C23.7810938,8.53130859 24.4354102,8.73638672 24.9316406,9.43359375 C26.1582422,11.5548633 27.3691406,13.68375 28.5644531,15.8203125 C28.7377148,16.4771484 28.5716602,17.0337891 28.0664062,17.4902344 C26.6501953,18.3253711 25.2244336,19.1456836 23.7890625,19.9511719 C25.4687695,19.9706836 27.148418,19.9902539 28.828125,20.0097656 C29.418457,20.1608203 29.809043,20.5221094 30,21.09375 C30,23.710957 30,26.3281055 30,28.9453125 C29.7851367,29.4335742 29.4335742,29.7851367 28.9453125,30 C19.648418,30 10.351582,30 1.0546875,30 C0.566406445,29.7851367 0.214843945,29.4335742 0,28.9453125 C0,19.648418 0,10.351582 0,1.0546875 C0.214843945,0.566406445 0.566406445,0.214843945 1.0546875,0 Z M1.2890625,1.0546875 C3.79405078,1.02603516 6.29402344,1.05533203 8.7890625,1.14257812 C8.85943359,1.19545898 8.90830078,1.26382031 8.93554687,1.34765625 C8.96484375,3.22255664 8.97462891,5.09755664 8.96484375,6.97265625 C6.328125,6.97265625 3.69140625,6.97265625 1.0546875,6.97265625 C1.04492578,5.07802148 1.0546875,3.18349219 1.08398437,1.2890625 C1.16458594,1.21845117 1.23294727,1.14032813 1.2890625,1.0546875 Z M13.6523438,2.40234375 C14.0757422,2.57497266 14.4858984,2.78005078 14.8828125,3.01757812 C16.6656445,4.0391543 18.4332422,5.08407422 20.1855469,6.15234375 C20.2826953,6.35296875 20.2631836,6.54832031 20.1269531,6.73828125 C19.2433008,8.29083984 18.3448828,9.83384766 17.4316406,11.3671875 C15.1514648,10.0464844 12.8760352,8.71833984 10.6054688,7.3828125 C11.5136719,5.80078125 12.421875,4.21875 13.3300781,2.63671875 C13.4179688,2.52136523 13.5253711,2.44324219 13.6523438,2.40234375 Z M1.0546875,8.02734375 C3.69147656,8.01755859 6.32818359,8.02734375 8.96484375,8.05664062 C7.84681641,10.0193555 6.71402344,11.9724609 5.56640625,13.9160156 C4.06262695,13.9453125 2.55871875,13.9550977 1.0546875,13.9453125 C1.0546875,11.9726367 1.0546875,10.0000195 1.0546875,8.02734375 Z M10.0195312,8.3203125 C12.3126562,9.63298828 14.5978125,10.9610742 16.875,12.3046875 C14.9342578,13.4735742 12.9713672,14.6063672 10.9863281,15.703125 C9.68806641,14.9521289 8.38927734,14.2001953 7.08984375,13.4472656 C8.10480469,11.7588867 9.08138672,10.0499414 10.0195312,8.3203125 Z M23.5546875,9.7265625 C23.7339258,9.74396484 23.8804102,9.82207031 23.9941406,9.9609375 C25.2035156,12.0576562 26.4046875,14.1572461 27.5976562,16.2597656 C27.5499609,16.4136914 27.4718555,16.5503906 27.3632812,16.6699219 C25.78125,17.578125 24.1992188,18.4863281 22.6171875,19.3945312 C21.2816602,17.1239648 19.9535156,14.8485352 18.6328125,12.5683594 C20.2694531,11.6039062 21.9100781,10.6566211 23.5546875,9.7265625 Z M17.578125,13.125 C17.7007031,13.1285742 17.7885937,13.187168 17.8417969,13.3007812 C19.1210742,15.5175586 20.4004102,17.7343945 21.6796875,19.9511719 C19.3942969,19.9999805 17.1091406,19.9902539 14.8242188,19.921875 C14.0820117,18.6328125 13.3398633,17.34375 12.5976562,16.0546875 C14.2711523,15.0913477 15.9312891,14.1147656 17.578125,13.125 Z M6.50390625,14.4140625 C7.64302734,15.0325781 8.77582031,15.6673242 9.90234375,16.3183594 C7.83205078,17.5293164 5.7617168,18.7402148 3.69140625,19.9511719 C3.57421875,19.9902539 3.45703125,19.9902539 3.33984375,19.9511719 C4.41815039,18.116543 5.47283789,16.2708398 6.50390625,14.4140625 Z M1.0546875,15 C2.3443418,14.9804883 3.6334043,15 4.921875,15.0585938 C3.99917578,16.6892578 3.06167578,18.3103711 2.109375,19.921875 C1.77612305,19.9633594 1.44408984,20.0024414 1.11328125,20.0390625 C1.05469922,18.3598242 1.03516406,16.6801172 1.0546875,15 Z M11.6015625,16.5820312 C12.2862305,17.686875 12.9502734,18.8099414 13.59375,19.9511719 C10.9961133,19.9902539 8.39841797,19.9902539 5.80078125,19.9511719 C7.75722656,18.8561719 9.69082031,17.7331055 11.6015625,16.5820312 Z M1.34765625,21.0351562 C3.55468604,21.0351562 5.7617168,21.0351562 7.96875,21.0351562 C7.96875,23.671875 7.96875,26.3085938 7.96875,28.9453125 C5.74209961,28.9550977 3.51553711,28.9453125 1.2890625,28.9160156 C1.22070117,28.8476367 1.1523457,28.7793164 1.08398437,28.7109375 C1.04491992,26.25 1.04491992,23.7890625 1.08398437,21.328125 C1.14404297,21.1999805 1.23193359,21.1023047 1.34765625,21.0351562 Z M9.0234375,21.0351562 C11.015625,21.0351562 13.0078125,21.0351562 15,21.0351562 C15,23.671875 15,26.3085938 15,28.9453125 C13.0078125,28.9453125 11.015625,28.9453125 9.0234375,28.9453125 C9.0234375,26.3085938 9.0234375,23.671875 9.0234375,21.0351562 Z M16.0546875,21.0351562 C18.0273633,21.0351562 19.9999805,21.0351562 21.9726562,21.0351562 C21.9726562,23.671875 21.9726562,26.3085938 21.9726562,28.9453125 C19.9999805,28.9453125 18.0273633,28.9453125 16.0546875,28.9453125 C16.0546875,26.3085938 16.0546875,23.671875 16.0546875,21.0351562 Z M23.0273438,21.0351562 C24.9465234,21.0066797 26.8605469,21.0359766 28.7695312,21.1230469 C28.8399023,21.175957 28.8887695,21.2442773 28.9160156,21.328125 C28.9550977,23.7890625 28.9550977,26.25 28.9160156,28.7109375 C28.8476367,28.7793164 28.7793164,28.8476367 28.7109375,28.9160156 C26.8164844,28.9453125 24.9219727,28.9550977 23.0273438,28.9453125 C23.0273438,26.3085938 23.0273438,23.671875 23.0273438,21.0351562 Z" id="Shape" fill-opacity="0.5" fill="#000000" opacity="0.945"></path>
            <path d="M4.6875,22.96875 C5.93009766,22.900957 6.70154297,23.4673242 7.00195313,24.6679687 C7.03119141,26.3183789 6.22060547,27.0898828 4.5703125,26.9824219 C3.38165625,26.6081836 2.86407422,25.7976562 3.01757813,24.5507812 C3.24607617,23.6677734 3.8027168,23.1404297 4.6875,22.96875 Z M4.8046875,24.0234375 C4.6001543,24.1017773 4.41460547,24.2189648 4.24804688,24.375 C3.89789063,24.976875 4.00531055,25.4749219 4.5703125,25.8691406 C5.49166406,26.0877539 5.95066406,25.7264062 5.94728436,24.7851562 C5.76220898,24.2389453 5.38134961,23.985 4.8046875,24.0234375 Z" id="Shape" fill-opacity="0.5" fill="#000000" opacity="0.934"></path>
            <g id="Group-4" transform="translate(9.023438, 21.024629)" fill="#FFFFFF">
                <path d="M0,0.0105270862 C1.9921875,0.0105270862 3.984375,0.0105270862 5.9765625,0.0105270862 C5.9765625,2.64724584 5.9765625,5.28396459 5.9765625,7.92068334 C3.984375,7.92068334 1.9921875,7.92068334 0,7.92068334 C0,5.28396459 0,2.64724584 0,0.0105270862 Z" id="Path" fill-opacity="0.3"></path>
                <path d="M14.0039062,0.0105270862 C15.9230859,-0.0179494763 17.8371094,0.0113473987 19.7460938,0.0984177112 C19.8164648,0.151327867 19.865332,0.21964818 19.8925781,0.303495836 C19.9316602,2.76443334 19.9316602,5.22537084 19.8925781,7.68630834 C19.8241992,7.75468724 19.7558789,7.82300755 19.6875,7.89138646 C17.7930469,7.92068334 15.8985352,7.93046849 14.0039062,7.92068334 C14.0039062,5.28396459 14.0039062,2.64724584 14.0039062,0.0105270862 Z" id="Path" fill-opacity="0.8"></path>
                <path d="M7.03125,0.0105270862 C9.00392578,0.0105270862 10.976543,0.0105270862 12.9492188,0.0105270862 C12.9492188,2.64724584 12.9492188,5.28396459 12.9492188,7.92068334 C10.976543,7.92068334 9.00392578,7.92068334 7.03125,7.92068334 C7.03125,5.28396459 7.03125,2.64724584 7.03125,0.0105270862 Z" id="Path" fill-opacity="0.6"></path>
            </g>
            <g id="Group-5" transform="translate(5.800781, 9.726562)" fill="#FFFFFF">
                <path d="M17.7539062,0 C17.9331445,0.0174023437 18.0796289,0.0955078125 18.1933594,0.234375 C19.4027344,2.33109375 20.6039063,4.43068359 21.796875,6.53320312 C21.7491797,6.68712891 21.6710742,6.82382812 21.5625,6.94335938 C19.9804688,7.8515625 18.3984375,8.75976562 16.8164062,9.66796875 C15.4808789,7.39740234 14.1527344,5.12197266 12.8320312,2.84179688 C14.4686719,1.87734375 16.1092969,0.930058594 17.7539062,0 Z" id="Path" fill-opacity="0.8"></path>
                <path d="M5.80078125,6.85546875 C6.48544922,7.9603125 7.14949219,9.08337891 7.79296875,10.2246094 C5.19533203,10.2636914 2.59763672,10.2636914 0,10.2246094 C1.95644531,9.12960938 3.89003906,8.00654297 5.80078125,6.85546875 Z" id="Path" fill-opacity="0.3"></path>
                <path d="M11.7773438,3.3984375 C11.8999219,3.40201172 11.9878125,3.46060547 12.0410156,3.57421875 C13.320293,5.79099609 14.5996289,8.00783203 15.8789062,10.2246094 C13.5935156,10.273418 11.3083594,10.2636914 9.0234375,10.1953125 C8.28123047,8.90625 7.53908203,7.6171875 6.796875,6.328125 C8.47037109,5.36478516 10.1305078,4.38820312 11.7773438,3.3984375 Z" id="Path" fill-opacity="0.6"></path>
            </g>
            <g id="Group-6" transform="translate(3.339844, 2.402344)" fill="#FFFFFF">
                <path d="M3.1640625,12.0117188 C4.30318359,12.6302344 5.43597656,13.2649805 6.5625,13.9160156 C4.49220703,15.1269727 2.42187305,16.3378711 0.3515625,17.5488281 C0.234375,17.5879102 0.1171875,17.5879102 0,17.5488281 C1.07830664,15.7141992 2.13299414,13.8684961 3.1640625,12.0117188 Z" id="Path" fill-opacity="0.3"></path>
                <path d="M10.3125,0 C10.7358984,0.172628906 11.1460547,0.377707031 11.5429687,0.615234375 C13.3258008,1.63681055 15.0933984,2.68173047 16.8457031,3.75 C16.9428516,3.950625 16.9233398,4.14597656 16.7871094,4.3359375 C15.903457,5.88849609 15.0050391,7.43150391 14.0917969,8.96484375 C11.8116211,7.64414063 9.53619141,6.31599609 7.265625,4.98046875 C8.17382812,3.3984375 9.08203125,1.81640625 9.99023437,0.234375 C10.078125,0.119021484 10.1855273,0.0408984375 10.3125,0 Z" id="Path" fill-opacity="0.8"></path>
                <path d="M6.6796875,5.91796875 C8.9728125,7.23064453 11.2579687,8.55873047 13.5351562,9.90234375 C11.5944141,11.0712305 9.63152344,12.2040234 7.64648438,13.3007812 C6.34822266,12.5497852 5.04943359,11.7978516 3.75,11.0449219 C4.76496094,9.35654297 5.74154297,7.64759766 6.6796875,5.91796875 Z" id="Path" fill-opacity="0.6"></path>
            </g>
            <path d="M1.0546875,15 C2.3443418,14.9804883 3.6334043,15 4.921875,15.0585938 C3.99917578,16.6892578 3.06167578,18.3103711 2.109375,19.921875 C1.77612305,19.9633594 1.44408984,20.0024414 1.11328125,20.0390625 C1.05469922,18.3598242 1.03516406,16.6801172 1.0546875,15 Z" id="Path" fill-opacity="0.3" fill="#FFFFFF"></path>
            <path d="M1.0546875,8.02734375 C3.69147656,8.01755859 6.32818359,8.02734375 8.96484375,8.05664063 C7.84681641,10.0193555 6.71402344,11.9724609 5.56640625,13.9160156 C4.06262695,13.9453125 2.55871875,13.9550977 1.0546875,13.9453125 C1.0546875,11.9726367 1.0546875,10.0000195 1.0546875,8.02734375 Z" id="Path" fill-opacity="0.6" fill="#FFFFFF"></path>
            <path d="M1.2890625,1.0546875 C3.79405078,1.02603516 6.29402344,1.05533203 8.7890625,1.14257813 C8.85943359,1.19545898 8.90830078,1.26382031 8.93554688,1.34765625 C8.96484375,3.22255664 8.97462891,5.09755664 8.96484375,6.97265625 C6.328125,6.97265625 3.69140625,6.97265625 1.0546875,6.97265625 C1.04492578,5.07802148 1.0546875,3.18349219 1.08398438,1.2890625 C1.16458594,1.21845117 1.23294727,1.14032813 1.2890625,1.0546875 Z" id="Path" fill-opacity="0.8" fill="#FFFFFF"></path>
        </g>
    </g>
</svg>