<?xml version="1.0" encoding="UTF-8"?>
<svg width="30px" height="30px" viewBox="0 0 30 30" version="1.1" xmlns="http://www.w3.org/2000/svg" xmlns:xlink="http://www.w3.org/1999/xlink">
    <title>comments</title>
    <g id="Page-1" stroke="none" stroke-width="1" fill="none" fill-rule="evenodd">
        <g id="comments">
            <path d="M30,4.22078062 C30,9.54545565 30,14.8701307 30,20.1948057 C29.4588281,22.7745458 27.9939844,24.192273 25.6054688,24.4480522 C22.0898438,24.4696756 18.5742188,24.4913639 15.0585938,24.5129873 C12.1289062,26.2229223 9.19921875,27.9329222 6.26953125,29.6428572 C6.02179688,29.8072727 5.75810742,29.9262987 5.47851562,30 C5.15429297,29.9328571 4.98827344,29.7164286 4.98046875,29.3506494 C5.2475625,27.7299352 5.54053125,26.1174028 5.859375,24.5129873 C5.10456445,24.500325 4.35261328,24.4462341 3.60351562,24.3506497 C1.63069336,23.7770783 0.429524414,22.3917537 0,20.1948057 C0,14.8701307 0,9.54545565 0,4.22078062 C0.484415625,1.8119236 1.83207422,0.415819783 4.04296875,0.0324691541 C11.3476758,-0.0108230514 18.6523242,-0.0108230514 25.9570312,0.0324691541 C28.1679492,0.415819783 29.5156055,1.8119236 30,4.22078062 Z" id="Path" fill="#FFFFFF" opacity="0.971"></path>
            <path d="M25.9570312,0.0324691541 C28.1679492,0.415819783 29.5156055,1.8119236 30,4.22078062 L30,20.1948057 L30,20.1948057 C29.4588281,22.7745458 27.9939844,24.192273 25.6054688,24.4480522 C22.0898438,24.4696756 18.5742188,24.4913639 15.0585938,24.5129873 C12.1289062,26.2229223 9.19921875,27.9329222 6.26953125,29.6428572 C6.02179688,29.8072727 5.75810742,29.9262987 5.47851562,30 C5.15429297,29.9328571 4.98827344,29.7164286 4.98046875,29.3506494 C5.2475625,27.7299352 5.54053125,26.1174028 5.859375,24.5129873 C5.10456445,24.500325 4.35261328,24.4462341 3.60351562,24.3506497 C1.63069336,23.7770783 0.429524414,22.3917537 0,20.1948057 L0,4.22078062 L0,4.22078062 C0.484415625,1.8119236 1.83207422,0.415819783 4.04296875,0.0324691541 C11.3476758,-0.0108230514 18.6523242,-0.0108230514 25.9570312,0.0324691541 Z M11.269553,1.16522426 L3.92578125,1.16883273 C2.34532031,1.56756647 1.37852344,2.64981966 1.02539062,4.4155858 C0.986326172,9.58876734 0.986326172,14.7618839 1.02539062,19.9350655 C1.36828711,21.7869485 2.37414844,22.9016238 4.04296875,23.2792211 C4.921875,23.3008445 5.80078125,23.3225328 6.6796875,23.3441562 C6.95244141,23.5322731 7.04033203,23.8027925 6.94335937,24.1558445 C6.67054687,25.5588963 6.43617187,26.9658443 6.24023437,28.3766235 C9.09691406,26.6908443 11.9582812,25.0133769 14.8242187,23.3441562 C18.515625,23.3225328 22.2070312,23.3008445 25.8984375,23.2792211 C27.5991211,22.931364 28.6245117,21.8166238 28.9746094,19.9350655 C29.0136914,14.7618839 29.0136914,9.58876734 28.9746094,4.4155858 C28.6186523,2.59246252 27.6127734,1.52103401 25.9570312,1.20130026 C18.6133008,1.16883273 11.2695703,1.15800805 3.92578125,1.16883273 Z" id="Combined-Shape" fill-opacity="0.6" fill="#000000" opacity="0.971"></path>
            <path d="M23.8835185,18.0038922 C24.5304732,17.9782672 25.1646389,18.0095172 25.7860156,18.0976422 C26.2823559,18.7507668 25.9300769,19.0528291 24.7290728,19.0038917 C23.6895695,19.1080166 23.2844434,18.8580167 23.5135885,18.2538921 C23.5865176,18.1382672 23.7097571,18.0548922 23.8835185,18.0038922 Z" id="Path" fill-opacity="0.6" fill="#000000" opacity="0.966"></path>
            <path d="M4.43577108,6.00389681 C5.08270463,5.97827183 5.71687031,6.00952181 6.33826812,6.09764676 C6.83460845,6.75077139 6.48229771,7.05283371 5.28132532,7.00389624 C4.24181151,7.10802118 3.83665363,6.85802132 4.06584111,6.25389667 C4.13873845,6.13827174 4.26205197,6.05489678 4.43577108,6.00389681 Z" id="Path" fill-opacity="0.6" fill="#000000" opacity="0.966"></path>
            <path d="M4.43577108,15.0038934 C11.4820916,14.9934559 18.5284122,15.0038934 25.574627,15.0351434 C25.8934009,15.1307058 26.0342914,15.2869557 25.9974041,15.5038931 C26.0342914,15.7208305 25.8934009,15.8770804 25.574627,15.9726428 C18.5283065,16.0143303 11.4820916,16.0143303 4.43577108,15.9726428 C4.11699714,15.8770804 3.97606438,15.7208305 4.01299397,15.5038931 C3.98999489,15.2810182 4.13091707,15.1143933 4.43577108,15.0038934 Z" id="Path" fill-opacity="0.6" fill="#000000" opacity="0.997"></path>
            <path d="M4.43577108,9.00389567 C11.4820916,8.99345817 18.5284122,9.00389567 25.574627,9.03514565 C25.8934009,9.1307081 26.0342914,9.28695801 25.9974041,9.50389538 C26.0342914,9.72083276 25.8934009,9.87708267 25.574627,9.97264511 C18.5283065,10.0143326 11.4820916,10.0143326 4.43577108,9.97264511 C4.11699714,9.87708267 3.97606438,9.72083276 4.01299397,9.50389538 C3.98999489,9.28102051 4.13091707,9.11439561 4.43577108,9.00389567 Z" id="Path" fill-opacity="0.6" fill="#000000" opacity="0.997"></path>
            <path d="M4.43577108,12.0038945 C11.4820916,11.993457 18.5284122,12.0038945 25.574627,12.0351445 C25.8934009,12.1307069 26.0342914,12.2869569 25.9974041,12.5038942 C26.0342914,12.7208316 25.8934009,12.8770815 25.574627,12.972644 C18.5283065,13.0143314 11.4820916,13.0143314 4.43577108,12.972644 C4.11699714,12.8770815 3.97606438,12.7208316 4.01299397,12.5038942 C3.98999489,12.2810194 4.13091707,12.1143945 4.43577108,12.0038945 Z" id="Path" fill-opacity="0.6" fill="#000000" opacity="0.997"></path>
            <path d="M4.43577108,18.0038922 C10.0728698,17.9934547 15.7099685,18.0038922 21.3468558,18.0351422 C21.6656298,18.1307047 21.8065202,18.2869546 21.7696329,18.5038919 C21.8065202,18.7208293 21.6656298,18.8770792 21.3468558,18.9726417 C15.7098628,19.0143292 10.0727641,19.0143292 4.43577108,18.9726417 C4.11699714,18.8770792 3.97606438,18.7208293 4.01299397,18.5038919 C3.98999489,18.2810171 4.13091707,18.1143922 4.43577108,18.0038922 Z" id="Path" fill-opacity="0.6" fill="#000000" opacity="0.996"></path>
            <path d="M8.66354227,6.00389681 C14.300641,5.99345932 19.9377397,6.00389681 25.574627,6.0351468 C25.8934009,6.13070924 26.0342914,6.28695915 25.9974041,6.50389653 C26.0342914,6.7208339 25.8934009,6.87708381 25.574627,6.97264626 C19.937634,7.01433374 14.3005353,7.01433374 8.66354227,6.97264626 C8.34476832,6.87708381 8.20387785,6.7208339 8.24076515,6.50389653 C8.2177238,6.28102166 8.35871997,6.11439675 8.66354227,6.00389681 Z" id="Path" fill-opacity="0.6" fill="#000000" opacity="0.996"></path>
        </g>
    </g>
</svg>