<?xml version="1.0" encoding="UTF-8"?>
<svg width="32px" height="32px" viewBox="0 0 32 32" version="1.1" xmlns="http://www.w3.org/2000/svg" xmlns:xlink="http://www.w3.org/1999/xlink">
    <title>desktop</title>
    <g id="Page-1" stroke="none" stroke-width="1" fill="none" fill-rule="evenodd">
        <g id="desktop" transform="translate(1.000000, 1.000000)">
            <path d="M1.55821522,-0.144764808 C10.5466302,-0.156326184 19.5144829,-0.146204274 28.4822749,-0.115839153 C28.9626168,-0.0313673449 29.322103,0.146178215 29.5898541,0.413929363 C29.8576019,0.68167716 30.0351489,1.04116007 30.1172293,1.49533711 C30.1601274,8.28282382 30.1601274,15.0445935 30.1196178,21.8063025 C30.0465419,22.2945685 29.8734632,22.6602516 29.6050389,22.9286759 C29.3366147,23.1971002 28.9709315,23.3701789 28.5044473,23.4415328 C25.3429895,23.473063 22.202788,23.4833851 19.0628135,23.4742685 C19.198943,24.307153 19.3635987,25.1349056 19.5567924,25.9574077 C20.4216433,26.1302754 20.9403584,26.5139639 21.2409835,27.2116292 C21.3501414,28.1096827 21.3705824,28.9688608 21.3136311,29.8314758 C16.9878047,30.1638972 13.0173962,30.1639423 9.04704724,30.1234081 C8.62922367,28.9860285 8.64885681,28.1183098 8.74772855,27.2539414 C8.91745099,26.843913 9.13820599,26.5654245 9.4180301,26.3733883 C9.67296639,26.198432 9.97794293,26.0945674 10.3340777,26.0647921 C10.6296137,25.1405542 10.8007226,24.3067619 10.9369276,23.4741612 C7.79680559,23.4833839 4.6567764,23.4730612 1.51679402,23.4432506 C1.02905766,23.370178 0.663366564,23.1970964 0.394936763,22.9286666 C0.126512463,22.6602423 -0.0465679502,22.294561 -0.117911344,21.8280812 C-0.160122361,15.0445934 -0.160122361,8.28282397 -0.119632764,1.52111528 C-0.0364384975,1.01657331 0.146548916,0.641626003 0.425050486,0.368585249 C0.703999919,0.0951054117 1.08059681,-0.0781134219 1.55821522,-0.144764808 Z" id="Shape" stroke-opacity="0.25" stroke="#000000" stroke-width="0.3" fill-opacity="0.25" fill="#000000" opacity="0.899"></path>
            <path d="M28.4822749,-0.115839153 C28.9626168,-0.0313673449 29.322103,0.146178215 29.5898541,0.413929363 C29.8576019,0.68167716 30.0351489,1.04116007 30.1172293,1.49533711 C30.1601274,8.28282382 30.1601274,15.0445935 30.1196178,21.8063025 C30.0465419,22.2945685 29.8734632,22.6602516 29.6050389,22.9286759 C29.3366147,23.1971002 28.9709315,23.3701789 28.5044473,23.4415328 C25.3429895,23.473063 22.202788,23.4833851 19.0628135,23.4742685 C19.198943,24.307153 19.3635987,25.1349056 19.5567924,25.9574077 C20.4216433,26.1302754 20.9403584,26.5139639 21.2409835,27.2116292 C21.3501414,28.1096827 21.3705824,28.9688608 21.3136311,29.8314758 C16.9878047,30.1638972 13.0173962,30.1639423 9.04704724,30.1234081 C8.62922367,28.9860285 8.64885681,28.1183098 8.74772855,27.2539414 C8.91745099,26.843913 9.13820599,26.5654245 9.4180301,26.3733883 C9.67296639,26.198432 9.97794293,26.0945674 10.3340777,26.0647921 C10.6296137,25.1405542 10.8007226,24.3067619 10.9369276,23.4741612 C7.79680559,23.4833839 4.6567764,23.4730612 1.51679402,23.4432506 C1.02905766,23.370178 0.663366564,23.1970964 0.394936763,22.9286666 C0.126512463,22.6602423 -0.0465679502,22.294561 -0.117911344,21.8280812 C-0.160122361,15.0445934 -0.160122361,8.28282397 -0.119632764,1.52111528 C-0.0364384975,1.01657331 0.146548916,0.641626003 0.425050486,0.368585249 C0.703999919,0.0951054117 1.08059681,-0.0781134219 1.55821522,-0.144764808 C10.5466302,-0.156326184 19.5144829,-0.146204274 28.4822749,-0.115839153 Z M10.3237188,26.6958872 L13.4414876,26.9925042 L10.3482148,26.9958608 L10.2187556,27.0478335 C9.96988207,27.1638543 9.78124774,27.3522936 9.65231895,27.612538 C9.62580158,28.1366487 9.61557982,28.6610813 9.62155308,29.1857644 L9.62155308,29.1857644 L20.3784319,29.1857644 L20.3789993,28.6606461 C20.3757674,28.3106246 20.3653109,27.96072 20.3476036,27.6109452 C20.2068824,27.3104146 19.9761588,27.1155096 19.6554639,27.026074 C16.5454103,26.9958456 13.4348899,26.9857672 10.3237188,26.6958872 L10.3237188,26.6958872 Z M11.8418584,23.1736219 L13.947661,23.4702387 L11.9637997,23.4734264 L11.6945539,24.7372636 L11.6945539,24.7372636 L11.4206063,26.0003716 C13.8068826,26.0370447 16.1933118,26.0370446 18.5796914,26.0004087 L18.5796914,26.0004087 L18.0366187,23.5022742 L17.2624231,23.4917144 C15.4559459,23.4664696 13.6492934,23.4274177 11.8418584,23.1736219 L11.8418584,23.1736219 Z M29.1832501,18.7367821 L0.816738023,18.7367821 L0.81498933,19.752618 C0.817861931,20.4297998 0.828811066,21.1069021 0.847835201,21.7839558 C0.896641964,21.9657702 0.97741028,22.1152333 1.09290629,22.2307293 C1.20803097,22.345854 1.35690119,22.42647 1.53787943,22.4753186 C10.5117836,22.5157174 19.4865697,22.5157199 28.4613565,22.4753319 C28.6430747,22.4264798 28.7919604,22.3458613 28.9070924,22.2307293 C29.0225797,22.115242 29.1033402,21.9657922 29.152142,21.7840336 C29.1806908,20.7684692 29.1910764,19.7527336 29.1832501,18.7367821 L29.1832501,18.7367821 Z M1.51816171,0.521811493 L10.506124,0.818436754 L1.54144131,0.821802773 L1.41427296,0.871050392 C1.13109691,0.999660618 0.942728864,1.22412251 0.848274881,1.54355128 C0.818267982,6.95144277 0.808091465,12.3600717 0.817743534,17.7687662 L0.817743534,17.7687662 L29.182243,17.7687662 L29.1852908,12.3782959 C29.1829083,8.78465199 29.1717003,5.1910171 29.151684,1.59740863 C29.1144649,1.39973809 29.0397655,1.23783999 28.9237342,1.11321369 C28.8087093,0.989668479 28.6541053,0.903842311 28.4621952,0.852118418 C19.4815675,0.821797803 10.4999772,0.811694961 1.51816171,0.521811493 L1.51816171,0.521811493 Z" id="Shape" stroke-opacity="0.5" stroke="#000000" stroke-width="0.3" fill-opacity="0.5" fill="#000000" opacity="0.899"></path>
            <path d="M3.94736659,20.2264573 C4.61568608,20.2163156 5.28370194,20.2264573 5.95141414,20.2568217 C6.194329,20.4592305 6.194329,20.6617 5.95141414,20.8641088 C5.30363917,20.9046149 4.65587027,20.9046149 4.0080953,20.8641088 C3.87397594,20.8072668 3.79300634,20.7060927 3.76518045,20.5604653 C3.80907516,20.4379147 3.86980387,20.3265383 3.94736659,20.2264573 Z" id="Path" fill-opacity="0.5" fill="#000000" opacity="0.868"></path>
            <path d="M1.51821804,0.671811482 C10.5060677,0.661688005 19.4939173,0.671811482 28.481767,0.702175839 C28.9441554,0.820420718 29.2174346,1.11394081 29.3016046,1.58274219 C29.331969,7.02804304 29.3421107,12.4734046 29.331969,17.9187662 C19.7773382,17.9187662 10.2226468,17.9187662 0.668016042,17.9187662 C0.657892565,12.4531212 0.668016042,6.98753699 0.698380399,1.52201348 C0.820845923,1.08589022 1.09412514,0.802487528 1.51821804,0.671811482 Z" id="Path" fill="#FFFFFF"></path>
        </g>
    </g>
</svg>