<?xml version="1.0" encoding="UTF-8"?>
<svg width="30px" height="30px" viewBox="0 0 30 30" version="1.1" xmlns="http://www.w3.org/2000/svg" xmlns:xlink="http://www.w3.org/1999/xlink">
    <title>medios</title>
    <g id="Page-1" stroke="none" stroke-width="1" fill="none" fill-rule="evenodd">
        <g id="medios" transform="translate(0.000000, -0.000000)">
            <path d="M1.06250095,0.00390712667 C10.3541831,-0.00651161736 19.6458653,0.00390712667 28.937485,0.0351571088 C29.4479222,0.212238257 29.791672,0.55598806 29.9687344,1.06640652 C30.0104219,10.3580887 30.0104219,19.6497084 29.9687344,28.9413905 C29.791672,29.4518278 29.4479222,29.7955776 28.937485,29.97264 C19.6458028,30.0143274 10.3541831,30.0143274 1.06250095,29.97264 C0.552082496,29.7955776 0.208332693,29.4518278 0.0312515446,28.9413905 C-0.0104171815,19.6497084 -0.0104171815,10.3580887 0.0312515446,1.06640652 C0.219945186,0.554881811 0.56369499,0.200719514 1.06250095,0.00390712667 Z" id="Shape" fill="#FFFFFF" opacity="0.999"></path>
            <path d="M1.06250095,0.00390712667 C10.3541831,-0.00651161736 19.6458653,0.00390712667 28.937485,0.0351571088 C29.4479222,0.212238257 29.791672,0.55598806 29.9687344,1.06640652 C30.0104219,10.3580887 30.0104219,19.6497084 29.9687344,28.9413905 C29.791672,29.4518278 29.4479222,29.7955776 28.937485,29.97264 C19.6458028,30.0143274 10.3541831,30.0143274 1.06250095,29.97264 C0.552082496,29.7955776 0.208332693,29.4518278 0.0312515446,28.9413905 C-0.0104171815,19.6497084 -0.0104171815,10.3580887 0.0312515446,1.06640652 C0.219945186,0.554881811 0.56369499,0.200719514 1.06250095,0.00390712667 Z M2,1 L28,1 C28.5522847,1 29,1.44771525 29,2 L29,28 C29,28.5522847 28.5522847,29 28,29 L2,29 C1.44771525,29 1,28.5522847 1,28 L1,2 C1,1.44771525 1.44771525,1 2,1 Z" id="Shape" fill-opacity="0.5" fill="#000000" opacity="0.999"></path>
            <path d="M2.49926408,2.02043422 C10.9138372,1.94522584 19.3180507,2.02150208 27.7120293,2.24926294 C27.7901639,2.36367731 27.8525717,2.49090608 27.8992528,2.63064415 C27.920097,6.08855132 27.9408164,9.54630594 27.9616606,13.0042131 C27.9812567,16.5768397 27.9188488,20.1363469 27.7744371,23.682887 C27.6808253,23.7783849 27.5767291,23.8546611 27.4623979,23.9117158 C23.3019172,23.937192 19.1413117,23.9625157 14.980831,23.987992 C10.7266137,24.0124004 6.4829309,23.9361242 2.24963274,23.7591633 C2.17152309,23.6447489 2.10911526,23.5175201 2.06240924,23.3777821 C1.97919463,16.4621203 1.97919463,9.54630594 2.06240924,2.63064415 C2.1484946,2.34842206 2.29411704,2.14491704 2.49926408,2.02043422 Z" id="Path" fill-opacity="0.5" fill="#000000" opacity="0.994"></path>
            <path d="M3.00460762,3.00390254 C2.98190558,7.67081744 3.00460762,12.3374345 3.07274101,17.0039025 C4.62409729,14.8616047 6.12307263,12.6773068 7.56954438,10.4507111 C8.12169733,10.0870089 8.68952095,10.0621366 9.27287899,10.376243 C10.3857697,11.9896685 11.4985241,13.603243 12.6114148,15.2166685 C14.5684782,12.1094132 16.4989695,8.98175361 18.4027525,5.83368978 C18.8284499,5.40832808 19.3281401,5.28426425 19.901687,5.46134935 C22.3430424,9.12443446 24.6821977,12.8727111 26.9194256,16.7060302 C26.9875589,12.1389025 27.0103155,7.57147701 26.9875589,3.00390254 C18.9931964,3.00390254 10.9989702,3.00390254 3.00460762,3.00390254 Z" id="Path" fill-opacity="0.5" fill="#FFFFFF" opacity="0.994"></path>
        </g>
    </g>
</svg>