<?xml version="1.0" encoding="UTF-8"?>
<svg width="30px" height="30px" viewBox="0 0 30 30" version="1.1" xmlns="http://www.w3.org/2000/svg" xmlns:xlink="http://www.w3.org/1999/xlink">
    <title>page</title>
    <g id="Page-1" stroke="none" stroke-width="1" fill="none" fill-rule="evenodd">
        <g id="page" transform="translate(0.000000, -0.000000)">
            <path d="M1.06250095,0.00390712667 C10.3541831,-0.00651161736 19.6458653,0.00390712667 28.937485,0.0351571088 C29.4479222,0.212238257 29.791672,0.55598806 29.9687344,1.06640652 C30.0104219,10.3580887 30.0104219,19.6497084 29.9687344,28.9413905 C29.791672,29.4518278 29.4479222,29.7955776 28.937485,29.97264 C19.6458028,30.0143274 10.3541831,30.0143274 1.06250095,29.97264 C0.552082496,29.7955776 0.208332693,29.4518278 0.0312515446,28.9413905 C-0.0104171815,19.6497084 -0.0104171815,10.3580887 0.0312515446,1.06640652 C0.219945186,0.554881811 0.56369499,0.200719514 1.06250095,0.00390712667 Z" id="Shape" fill-opacity="0.25" fill="#000000" opacity="0.999"></path>
            <path d="M1.06236265,0.00390661809 C10.3528353,-0.00651076975 19.643308,0.00390661809 28.9337182,0.0351525324 C29.444089,0.212210631 29.7877941,0.555915688 29.9648334,1.06626771 C30.0065155,10.3567404 30.0065155,19.6471506 29.9648334,28.9376233 C29.7877941,29.4479941 29.444089,29.7916991 28.9337182,29.9687385 C19.6432455,30.0104205 10.3528353,30.0104205 1.06236265,29.9687385 C0.552010632,29.7916991 0.208305575,29.4479941 0.0312474766,28.9376233 C-0.0104158255,19.6471506 -0.0104158255,10.3567404 0.0312474766,1.06626771 C0.219916557,0.554809583 0.563621614,0.200693387 1.06236265,0.00390661809 Z M0.999870821,5.00325291 C10.3319631,5.00325291 19.6641178,5.00325291 28.9962101,5.00325291 C29.0066462,12.8356038 28.9962101,20.6678921 28.9649641,28.5001805 C28.9395925,28.687281 28.8458547,28.8227008 28.6837509,28.9063774 C28.0426472,29.0058644 27.3968567,29.0267366 26.7465042,28.9688692 C27.6045795,23.9798966 26.0630936,19.9179277 22.1221089,16.7829626 C18.3061079,14.206487 14.2649488,13.789854 9.99869415,15.533126 C5.93878752,17.5154918 3.61620371,20.7546308 3.03085525,25.2506054 C2.98919195,26.0629992 2.98919195,26.8753929 3.03085525,27.6877867 C3.07378714,28.1225424 3.14669636,28.549549 3.24957665,28.9688692 C2.66632167,29.0105513 2.08306043,29.0105513 1.49980545,28.9688692 C1.21859222,28.9376233 1.06236265,28.7813937 1.03111674,28.5001805 C0.999870821,20.6678921 0.989453433,12.8356038 0.999870821,5.00325291 Z" id="Shape" fill-opacity="0.5" fill="#000000" opacity="0.997"></path>
            <path d="M1.31232996,1.00377588 C10.4153272,0.993358489 19.5183244,1.00377588 28.6212591,1.03502179 C28.7919868,1.05989979 28.9065343,1.15363753 28.9649641,1.31623502 C28.9962101,2.21171168 29.0066462,3.10742581 28.9962101,4.00338365 C19.6641178,4.00338365 10.3319631,4.00338365 0.999870821,4.00338365 C0.989459682,3.10742581 0.99987707,2.21171168 1.03111674,1.31623502 C1.09517086,1.17956539 1.1889086,1.07541651 1.31232996,1.00377588 Z" id="Path" fill="#FFFFFF"></path>
            <path d="M5.37429883,6.9404996 C5.64263874,6.92162707 5.84055036,7.02573845 5.9679712,7.25295874 C6.09295486,8.04454274 6.21793851,8.83606424 6.34292217,9.62764823 C6.75099381,8.75926178 7.19887275,7.91562209 7.68649649,7.09672917 C7.95746106,6.95787233 8.20742837,6.98911824 8.43639843,7.19046691 C8.84259532,8.00286069 9.2487922,8.81525446 9.65498909,9.62764823 C9.77997275,8.83606424 9.90495641,8.04454274 10.0299401,7.25295874 C10.061186,7.13841122 10.1341139,7.06548326 10.2486615,7.03423734 C10.7649065,6.92568904 11.0148738,7.1339743 10.9985634,7.65915563 C10.8552072,8.96248521 10.6989776,10.2643775 10.5298747,11.5648949 C10.4925671,11.8803537 10.3155277,12.0262096 9.99869415,12.0023377 C9.84708897,12.0083369 9.71166918,11.9667174 9.59249726,11.8773541 C9.07725213,10.826054 8.54607159,9.78456521 7.99895563,8.75276263 C7.45183967,9.78456521 6.92065913,10.826054 6.405414,11.8773541 C6.15219711,12.0299591 5.89179366,12.0403952 5.62426614,11.9086 C5.54821359,11.8056134 5.49615789,11.6910659 5.46803657,11.5648949 C5.30343309,10.1957614 5.12635625,8.83137735 4.93685603,7.47168014 C4.98909295,7.20758968 5.13490513,7.03055032 5.37429883,6.9404996 Z" id="Path" fill-opacity="0.5" fill="#000000" opacity="0.975"></path>
            <path d="M12.3733836,6.9404996 C12.6417236,6.92162707 12.8396352,7.02573845 12.967056,7.25295874 C13.0920397,8.04454274 13.2170233,8.83606424 13.342007,9.62764823 C13.7500786,8.75926178 14.1979576,7.91562209 14.6855813,7.09672917 C14.9565459,6.95787233 15.2065132,6.98911824 15.4354832,7.19046691 C15.8416801,8.00286069 16.247877,8.81525446 16.6540739,9.62764823 C16.7790576,8.83606424 16.9040412,8.04454274 17.0290249,7.25295874 C17.0602708,7.13841122 17.1331988,7.06548326 17.2477463,7.03423734 C17.7639913,6.92568904 18.0139586,7.1339743 17.9976482,7.65915563 C17.854292,8.96248521 17.6980624,10.2643775 17.5289595,11.5648949 C17.4916519,11.8803537 17.3146125,12.0262096 16.997779,12.0023377 C16.8461738,12.0083369 16.710754,11.9667174 16.5915821,11.8773541 C16.0763369,10.826054 15.5451564,9.78456521 14.9980404,8.75276263 C14.4509245,9.78456521 13.9197439,10.826054 13.4044988,11.8773541 C13.1512819,12.0299591 12.8908785,12.0403952 12.623351,11.9086 C12.5472984,11.8056134 12.4952427,11.6910659 12.4671214,11.5648949 C12.3025179,10.1957614 12.1254161,8.83137735 11.9359408,7.47168014 C11.988184,7.20758968 12.1339774,7.03055032 12.3733836,6.9404996 Z" id="Path" fill-opacity="0.5" fill="#000000" opacity="0.974"></path>
            <path d="M18.810042,6.9404996 C19.0789443,6.89650535 19.2976657,6.97986945 19.4662062,7.19046691 C19.586128,8.00423551 19.7111117,8.81662928 19.8411572,9.62764823 C20.2492288,8.75926178 20.6971077,7.91562209 21.1847315,7.09672917 C21.4861921,6.94387416 21.7465955,6.99592985 21.9658793,7.25295874 C22.3616401,8.04454274 22.7574633,8.83606424 23.1532241,9.62764823 C23.2782077,8.83606424 23.4031914,8.04454274 23.5281751,7.25295874 C23.8018893,6.95031082 24.0934761,6.92943855 24.4030607,7.19046691 C24.4684896,7.34913367 24.4997355,7.51573688 24.4967984,7.69040154 C24.3456307,8.92030322 24.2102109,10.14933 24.0906015,11.3774194 C24.6382174,11.491342 25.1902702,11.5954534 25.746635,11.6898786 C26.1684548,11.8257358 26.2830648,12.0965129 26.09034,12.5022724 C25.8393728,12.7427409 25.5998417,12.9927082 25.371684,13.2521743 C26.2266972,14.1175611 27.0703369,14.9924467 27.9026031,15.8768311 C27.9519716,16.0726805 27.9311618,16.260156 27.8401112,16.4392576 C27.3506127,16.9287561 26.8610518,17.418317 26.3715533,17.9078155 C26.1215859,18.0327992 25.8716186,18.0327992 25.6216513,17.9078155 C24.7988214,17.0849856 23.976054,16.2622182 23.1532241,15.4393883 C22.8908209,15.7227262 22.6096077,15.9831297 22.3095844,16.2205362 C21.9565056,16.3303968 21.7169744,16.2157868 21.5909284,15.8768311 C21.3138396,14.3602794 21.0846821,12.8396657 20.9035183,11.3149276 C21.0025053,11.0807082 21.1795447,10.9557246 21.4346988,10.9399766 C21.8740788,11.0338394 22.3115216,11.1067673 22.7470272,11.158698 C22.3383931,10.3518035 21.9217601,9.54984591 21.4971906,8.75276263 C20.9500747,9.78456521 20.4188941,10.826054 19.903649,11.8773541 C19.6251854,12.0990126 19.3544083,12.0990126 19.0912552,11.8773541 C19.0373873,11.7781795 18.9957052,11.6740057 18.9662716,11.5648949 C18.7992934,10.18745 18.622254,8.8126298 18.435091,7.44043423 C18.4917086,7.21783834 18.6166923,7.05123512 18.810042,6.9404996 Z" id="Path" fill-opacity="0.5" fill="#000000" opacity="0.979"></path>
            <path d="M22.0596171,12.1273214 C22.8948204,12.2595541 23.7280239,12.40541 24.5592902,12.5647642 C24.3913122,12.7431159 24.2350826,12.9305913 24.0906015,13.1271906 C24.056106,13.3096043 24.0977881,13.47627 24.2155852,13.6271253 C25.0384151,14.4499552 25.8611825,15.2727226 26.6840124,16.0955525 C26.4643536,16.3256474 26.2351961,16.5443688 25.9966023,16.7517167 C25.1538375,15.9401978 24.3206339,15.1173679 23.4969291,14.2832895 C23.3178276,14.1922389 23.1303521,14.1714291 22.9345027,14.2207976 C22.7782731,14.3770272 22.6220435,14.5332568 22.465814,14.6894864 C22.2939614,13.8407848 22.1586041,12.986709 22.0596171,12.1273214 Z" id="Path" fill-opacity="0.8" fill="#FFFFFF"></path>
            <path d="M14.2481385,15.564372 C14.3314401,15.564372 14.4148042,15.564372 14.4981058,15.564372 C14.4981058,17.2099693 14.4981058,18.8556291 14.4981058,20.5012264 C13.1440954,20.5012264 11.7901474,20.5012264 10.4361369,20.5012264 C10.9073253,18.8179465 11.7822109,17.3910706 13.0607938,16.2205362 C13.4443686,15.9665694 13.8401293,15.747848 14.2481385,15.564372 Z" id="Path" fill-opacity="0.8" fill="#FFFFFF"></path>
            <path d="M15.4979751,15.564372 C16.4829088,15.8330868 17.2848664,16.374641 17.9039105,17.1891595 C18.6546248,18.1906535 19.2066776,19.2946967 19.5599439,20.5012264 C18.2059335,20.5012264 16.8519855,20.5012264 15.4979751,20.5012264 C15.4979751,18.8556291 15.4979751,17.2099693 15.4979751,15.564372 Z" id="Path" fill-opacity="0.8" fill="#FFFFFF"></path>
            <path d="M11.6234817,16.0018148 C11.6892231,15.9925035 11.7517149,16.0028771 11.8109572,16.0330607 C10.6328612,17.3159554 9.82046745,18.8053232 9.37377586,20.5012264 C8.18624364,20.5116626 6.9988989,20.5012264 5.81174163,20.4699805 C7.25217828,18.3313851 9.18942497,16.8419549 11.6234817,16.0018148 Z" id="Path" fill-opacity="0.8" fill="#FFFFFF"></path>
            <path d="M18.1851237,16.0643066 C20.7119183,16.7794006 22.7116568,18.2479586 24.1843393,20.4699805 C22.997182,20.5012264 21.8098372,20.5116626 20.622305,20.5012264 C20.1814252,18.8061981 19.3690314,17.3272664 18.1851237,16.0643066 Z" id="Path" fill-opacity="0.8" fill="#FFFFFF"></path>
            <path d="M5.18682334,21.5010957 C6.47834196,21.5010957 7.7697981,21.5010957 9.06131672,21.5010957 C8.73910885,22.9825895 8.55163336,24.4823933 8.49889026,26.0005073 C6.99908637,26.0005073 5.49928248,26.0005073 3.9994786,26.0005073 C4.08303642,24.4163395 4.47881592,22.9165356 5.18682334,21.5010957 Z" id="Path" fill-opacity="0.8" fill="#FFFFFF"></path>
            <path d="M10.1236778,21.5010957 C11.5817996,21.5010957 13.039984,21.5010957 14.4981058,21.5010957 C14.4981058,23.0008996 14.4981058,24.5007035 14.4981058,26.0005073 C12.8525085,26.0005073 11.2068487,26.0005073 9.56125135,26.0005073 C9.53862931,24.4718947 9.72610479,22.9720908 10.1236778,21.5010957 Z" id="Path" fill-opacity="0.8" fill="#FFFFFF"></path>
            <path d="M15.4979751,21.5010957 C16.9562844,21.4906595 18.4144062,21.5010957 19.8724031,21.5323416 C20.2569778,22.9941504 20.4652631,24.4835182 20.4973214,26.0005073 C18.8308518,26.0005073 17.1644447,26.0005073 15.4979751,26.0005073 C15.4979751,24.5007035 15.4979751,23.0008996 15.4979751,21.5010957 Z" id="Path" fill-opacity="0.8" fill="#FFFFFF"></path>
            <path d="M20.9347642,21.5010957 C22.2269077,21.4802859 23.5184263,21.5010957 24.8092575,21.5635875 C25.5274136,22.9572178 25.9231744,24.4361494 25.9966023,26.0005073 C24.4967984,26.0005073 22.9969945,26.0005073 21.4971906,26.0005073 C21.4265749,24.4857054 21.2390994,22.9859015 20.9347642,21.5010957 Z" id="Path" fill-opacity="0.8" fill="#FFFFFF"></path>
            <path d="M4.06197043,27.0003766 C5.56177431,27.0003766 7.0615782,27.0003766 8.56138209,27.0003766 C8.55225828,27.6682268 8.57313055,28.3348271 8.62387392,29.0001151 C7.18593694,29.0209249 5.74862488,29.0001151 4.31193774,28.9376233 C4.11778813,28.3066433 4.03446152,27.6608527 4.06197043,27.0003766 Z" id="Path" fill-opacity="0.8" fill="#FFFFFF"></path>
            <path d="M9.49875952,27.0003766 C11.1652291,27.0003766 12.8316362,27.0003766 14.4981058,27.0003766 C14.4981058,27.6669769 14.4981058,28.3335148 14.4981058,29.0001151 C12.8733183,29.0001151 11.2485307,29.0001151 9.62374318,29.0001151 C9.58899772,28.3330773 9.54731567,27.666477 9.49875952,27.0003766 Z" id="Path" fill-opacity="0.8" fill="#FFFFFF"></path>
            <path d="M15.4979751,27.0003766 C17.1435724,27.0003766 18.7892322,27.0003766 20.4348295,27.0003766 C20.4338297,27.6677268 20.4129574,28.3343272 20.3723377,29.0001151 C18.7475502,29.0001151 17.1227626,29.0001151 15.4979751,29.0001151 C15.4979751,28.3335148 15.4979751,27.6669769 15.4979751,27.0003766 Z" id="Path" fill-opacity="0.8" fill="#FFFFFF"></path>
            <path d="M21.4971906,27.0003766 C22.9761847,27.0003766 24.4551163,27.0003766 25.9341105,27.0003766 C25.9616069,27.6608527 25.8783053,28.3066433 25.6841431,28.9376233 C24.247456,29.0001151 22.8101439,29.0209249 21.372207,29.0001151 C21.3973287,28.3324524 21.4389482,27.6658521 21.4971906,27.0003766 Z" id="Path" fill-opacity="0.8" fill="#FFFFFF"></path>
        </g>
    </g>
</svg>