<?xml version="1.0" encoding="UTF-8"?>
<svg width="30px" height="30px" viewBox="0 0 30 30" version="1.1" xmlns="http://www.w3.org/2000/svg" xmlns:xlink="http://www.w3.org/1999/xlink">
    <title>plugins</title>
    <g id="Page-1" stroke="none" stroke-width="1" fill="none" fill-rule="evenodd">
        <g id="plugins">
            <path d="M20.5144172,0.0560234251 C21.9939383,0.482415883 22.6146916,1.45788529 22.376677,2.98243165 C22.2516396,3.42978192 22.0348489,3.82391294 21.7263641,4.16481881 C20.3271862,5.56397892 18.9280675,6.96311538 17.5288897,8.36229323 C17.489457,8.48053195 17.489457,8.59877066 17.5288897,8.71700938 C18.7802691,9.96838883 20.0315894,11.2197092 21.2829689,12.4710886 C21.4012076,12.5105212 21.5194463,12.5105212 21.637685,12.4710886 C23.1370111,10.9520167 24.6544276,9.45434601 26.1898756,7.9780174 C27.4388312,7.25841658 28.5522852,7.42596084 29.5301193,8.48053195 C29.7174095,8.7958746 29.8553349,9.130904 29.9439548,9.48556103 C30.0186817,9.61012552 30.0186817,10.2477869 29.9439548,10.3723514 C29.8453438,10.786246 29.6679857,11.1606489 29.4118806,11.4956192 C27.9535834,12.9539164 26.4953453,14.4121545 25.0370481,15.8704517 C24.9976155,15.9886904 24.9976155,16.1069291 25.0370481,16.2251678 C25.3620272,16.4903773 25.6182505,16.8057199 25.8055998,17.1710776 C25.8431406,17.4132896 25.7840212,17.6300803 25.6282417,17.8213905 C24.4162949,19.0333374 23.204348,20.2452842 21.9924012,21.457231 C20.477645,22.8198731 18.6941913,23.5391783 16.6420993,23.6150876 C15.764768,23.5197872 14.8878506,23.4212352 14.0112879,23.3194908 C12.981606,23.3253436 12.055383,23.6308134 11.232678,24.2358409 C10.3036173,24.9876026 9.35770759,25.7167217 8.39494884,26.4232571 C7.24832889,26.9546219 6.22361306,26.7772638 5.32074222,25.8911829 C5.22220799,25.8517503 5.12367967,25.8517503 5.02514543,25.8911829 C3.64383937,27.2625746 2.28409413,28.6321337 0.945909729,29.9999783 C0.906494853,29.9999783 0.867085889,29.9999783 0.827671013,29.9999783 C0.836509357,29.9377847 0.82665416,29.8786654 0.798111334,29.8226202 C0.551780478,29.6551351 0.344862725,29.4482173 0.177358074,29.2018669 C0.12131174,29.1733123 0.0621920867,29.1634985 0,29.1723073 C0,29.1328746 0,29.0935012 0,29.0540685 C1.36782685,27.7159019 2.73742728,26.3561566 4.10879538,24.9748328 C4.08494663,24.6706046 3.94700344,24.4144404 3.69495988,24.2062812 C3.15852856,23.3600467 3.11911959,22.4929431 3.57672116,21.6050294 C4.28323296,20.6422707 5.01236974,19.696361 5.76413741,18.7673002 C6.39452712,17.9303475 6.69999685,16.9844378 6.68048746,15.9295711 C6.59103987,15.0881844 6.4924879,14.2506995 6.38489067,13.4169983 C6.45624773,11.3497126 7.17549384,9.54657221 8.54274724,8.00757708 C9.75469408,6.79563024 10.9666409,5.5836834 12.1785878,4.37173656 C12.5136172,4.09584425 12.8485874,4.09584425 13.1836168,4.37173656 C13.3806617,4.56879912 13.5777656,4.76586759 13.7748104,4.96293014 C13.8930491,5.00234502 14.0112879,5.00234502 14.1295266,4.96293014 C15.5878238,3.50465067 17.0460619,2.04637712 18.5043591,0.588097647 C18.8399205,0.331657973 19.2143826,0.154299899 19.6276269,0.0560234251 C19.7521914,-0.018674475 20.3898528,-0.018674475 20.5144172,0.0560234251 Z" id="Shape" fill-opacity="0.25" fill="#000000" opacity="0.941"></path>
            <path d="M20.5144172,0.0560234251 C21.9939383,0.482415883 22.6146916,1.45788529 22.376677,2.98243165 C22.2516396,3.42978192 22.0348489,3.82391294 21.7263641,4.16481881 C20.3271862,5.56397892 18.9280675,6.96311538 17.5288897,8.36229323 C17.489457,8.48053195 17.489457,8.59877066 17.5288897,8.71700938 C18.7802691,9.96838883 20.0315894,11.2197092 21.2829689,12.4710886 C21.4012076,12.5105212 21.5194463,12.5105212 21.637685,12.4710886 C23.1370111,10.9520167 24.6544276,9.45434601 26.1898756,7.9780174 C27.4388312,7.25841658 28.5522852,7.42596084 29.5301193,8.48053195 C29.7174095,8.7958746 29.8553349,9.130904 29.9439548,9.48556103 C30.0186817,9.61012552 30.0186817,10.2477869 29.9439548,10.3723514 C29.8453438,10.786246 29.6679857,11.1606489 29.4118806,11.4956192 C27.9535834,12.9539164 26.4953453,14.4121545 25.0370481,15.8704517 C24.9976155,15.9886904 24.9976155,16.1069291 25.0370481,16.2251678 C25.3620272,16.4903773 25.6182505,16.8057199 25.8055998,17.1710776 C25.8431406,17.4132896 25.7840212,17.6300803 25.6282417,17.8213905 C24.4162949,19.0333374 23.204348,20.2452842 21.9924012,21.457231 C20.477645,22.8198731 18.6941913,23.5391783 16.6420993,23.6150876 C15.764768,23.5197872 14.8878506,23.4212352 14.0112879,23.3194908 C12.981606,23.3253436 12.055383,23.6308134 11.232678,24.2358409 C10.3036173,24.9876026 9.35770759,25.7167217 8.39494884,26.4232571 C7.24832889,26.9546219 6.22361306,26.7772638 5.32074222,25.8911829 C5.22220799,25.8517503 5.12367967,25.8517503 5.02514543,25.8911829 C3.64383937,27.2625746 2.28409413,28.6321337 0.945909729,29.9999783 C0.906494853,29.9999783 0.867085889,29.9999783 0.827671013,29.9999783 C0.836509357,29.9377847 0.82665416,29.8786654 0.798111334,29.8226202 C0.551780478,29.6551351 0.344862725,29.4482173 0.177358074,29.2018669 C0.12131174,29.1733123 0.0621920867,29.1634985 0,29.1723073 C0,29.1328746 0,29.0935012 0,29.0540685 C1.36782685,27.7159019 2.73742728,26.3561566 4.10879538,24.9748328 C4.08494663,24.6706046 3.94700344,24.4144404 3.69495988,24.2062812 C3.15852856,23.3600467 3.11911959,22.4929431 3.57672116,21.6050294 C4.28323296,20.6422707 5.01236974,19.696361 5.76413741,18.7673002 C6.39452712,17.9303475 6.69999685,16.9844378 6.68048746,15.9295711 C6.59103987,15.0881844 6.4924879,14.2506995 6.38489067,13.4169983 C6.45624773,11.3497126 7.17549384,9.54657221 8.54274724,8.00757708 C9.75469408,6.79563024 10.9666409,5.5836834 12.1785878,4.37173656 C12.5136172,4.09584425 12.8485874,4.09584425 13.1836168,4.37173656 C13.3806617,4.56879912 13.5777656,4.76586759 13.7748104,4.96293014 C13.8930491,5.00234502 14.0112879,5.00234502 14.1295266,4.96293014 C15.5878238,3.50465067 17.0460619,2.04637712 18.5043591,0.588097647 C18.8399205,0.331657973 19.2143826,0.154299899 19.6276269,0.0560234251 C19.7521914,-0.018674475 20.3898528,-0.018674475 20.5144172,0.0560234251 Z M20.9276843,1.54993911 C21.3692395,1.98385416 21.375433,2.693563 20.9415179,3.13511817 L16.5505109,7.60343938 L16.5505109,7.60343938 L14.9514982,6.03209398 L19.3425052,1.56377276 C19.7764203,1.1222176 20.4861291,1.11602406 20.9276843,1.54993911 Z M12.5333039,5.76104148 C12.6337477,5.75158238 12.7322997,5.76139619 12.8289007,5.79060116 C16.6026667,9.56436714 20.3764918,13.3381922 24.1502578,17.1119582 C24.1896904,17.2301969 24.1896904,17.3484357 24.1502578,17.4666744 C22.9974303,18.6195019 21.8446028,19.7723293 20.6917753,20.9251568 C19.3792664,21.966899 17.8815366,22.4398539 16.1987041,22.3440214 C15.471063,22.2424544 14.741944,22.1537753 14.0112879,22.0779843 C13.2114621,22.1058886 12.4429104,22.2733738 11.7056329,22.5804988 C11.5677074,22.6199315 11.4297228,22.6199315 11.2917974,22.5804988 C10.0010444,21.2897459 8.71023238,19.9989338 7.41947943,18.7081809 C7.38004682,18.5702554 7.38004682,18.4322708 7.41947943,18.2943454 C7.96497375,16.9892856 8.06352572,15.6492271 7.71507622,14.274229 C7.47576106,12.4525843 7.90928332,10.816929 9.0157021,9.36732232 C10.1787572,8.15502076 11.3513306,6.95288773 12.5333039,5.76104148 Z M28.4344239,9.05667872 C28.8759791,9.49059377 28.8821726,10.2003026 28.4482576,10.6418578 L24.0572505,15.110179 L24.0572505,15.110179 L22.4582378,13.5388336 L26.8492449,9.07051237 C27.2831599,8.6289572 27.9928687,8.62276367 28.4344239,9.05667872 Z M6.50312938,19.8314487 C6.60357317,19.8219896 6.70212514,19.8318034 6.79872617,19.8610084 C7.91212104,20.9744032 9.02557503,22.0878572 10.1389699,23.2012521 C10.2084943,23.4235409 10.1395611,23.591026 9.93205215,23.7037666 C9.28451782,24.1738838 8.65389163,24.6665254 8.04023269,25.1817506 C7.55444893,25.565317 7.04206145,25.6047496 6.50312938,25.2999893 C5.90208061,24.6989228 5.30103774,24.0979154 4.69998896,23.4968489 C4.45303558,23.0757417 4.43332519,22.6422194 4.64086961,22.196223 C5.27429214,21.4153154 5.8950454,20.627077 6.50312938,19.8314487 Z" id="Shape" fill-opacity="0.5" fill="#000000" opacity="0.941"></path>
            <path d="M6.79872617,19.8610084 L10.1389699,23.2012521 L10.1389699,23.2012521 C10.2084943,23.4235409 10.1395611,23.591026 9.93205215,23.7037666 C9.28451782,24.1738838 8.65389163,24.6665254 8.04023269,25.1817506 C7.55444893,25.565317 7.04206145,25.6047496 6.50312938,25.2999893 L4.69998896,23.4968489 L4.69998896,23.4968489 C4.45303558,23.0757417 4.43332519,22.6422194 4.64086961,22.196223 C5.27429214,21.4153154 5.8950454,20.627077 6.50312938,19.8314487 C6.60357317,19.8219896 6.70212514,19.8318034 6.79872617,19.8610084 Z M12.8289007,5.79060116 L24.1502578,17.1119582 L24.1502578,17.1119582 C24.1896904,17.2301969 24.1896904,17.3484357 24.1502578,17.4666744 L20.6917753,20.9251568 L20.6917753,20.9251568 C19.3792664,21.966899 17.8815366,22.4398539 16.1987041,22.3440214 C15.471063,22.2424544 14.741944,22.1537753 14.0112879,22.0779843 C13.2114621,22.1058886 12.4429104,22.2733738 11.7056329,22.5804988 C11.5677074,22.6199315 11.4297228,22.6199315 11.2917974,22.5804988 C10.0010444,21.2897459 8.71023238,19.9989338 7.41947943,18.7081809 C7.38004682,18.5702554 7.38004682,18.4322708 7.41947943,18.2943454 C7.96497375,16.9892856 8.06352572,15.6492271 7.71507622,14.274229 C7.47576106,12.4525843 7.90928332,10.816929 9.0157021,9.36732232 C10.1787572,8.15502076 11.3513306,6.95288773 12.5333039,5.76104148 C12.6337477,5.75158238 12.7322997,5.76139619 12.8289007,5.79060116 Z" id="Combined-Shape" fill="#FFFFFF"></path>
            <path d="M15.2004543,17.1597915 C16.5043935,17.1597915 17.561445,16.10274 17.561445,14.7988008 C17.561445,13.4948617 16.5043935,12.4378102 15.2004543,12.4378102 C13.8965152,12.4378102 12.8394636,13.4948617 12.8394636,14.7988008 C12.8394636,16.10274 13.8965152,17.1597915 15.2004543,17.1597915 Z M15.2004543,15.9490271 C15.8357067,15.9490271 16.3506805,15.4340532 16.3506805,14.7988008 C16.3506805,14.1635484 15.8357067,13.6485746 15.2004543,13.6485746 C14.5652019,13.6485746 14.0502281,14.1635484 14.0502281,14.7988008 C14.0502281,15.4340532 14.5652019,15.9490271 15.2004543,15.9490271 Z" id="Shape" fill-opacity="0.5" fill="#000000" opacity="0.941"></path>
        </g>
    </g>
</svg>