<?xml version="1.0" encoding="UTF-8"?>
<svg width="30px" height="30px" viewBox="0 0 30 30" version="1.1" xmlns="http://www.w3.org/2000/svg" xmlns:xlink="http://www.w3.org/1999/xlink">
    <title>pen</title>
    <g id="Page-1" stroke="none" stroke-width="1" fill="none" fill-rule="evenodd">
        <g id="pen" transform="translate(0.000000, -0.000000)">
            <path d="M3.34111745,16.6693614 C3.39250374,16.8105673 3.43417658,16.954612 3.46612972,17.1013723 C3.46761112,20.7034178 3.50928396,24.3034884 3.59114199,27.9016457 C3.7348936,28.3404454 4.01617121,28.6593312 4.43497482,28.8582414 C5.07915056,28.9670464 5.72503896,29.0493136 6.37266504,29.1051048 C6.49323937,29.3060516 6.52449244,29.522057 6.46642424,29.7531212 C6.43517117,29.8662463 6.36222651,29.9382687 6.24765276,29.9691266 C5.64340595,30.0102911 5.03920289,30.0102911 4.43497482,29.9691266 C3.42445688,29.7119567 2.788982,29.0845534 2.52853768,28.0867933 C2.52705629,24.4847478 2.48538345,20.8846772 2.40352541,17.2865199 C2.25314815,16.7882878 1.9301977,16.4488507 1.43468031,16.2682084 C0.992105611,16.223341 0.55456266,16.1616251 0.122051454,16.0830608 C0.00150837074,15.882114 -0.0297446972,15.6661086 0.0282922499,15.4350444 C0.0714027318,15.3208701 0.14432864,15.2385412 0.247063725,15.188181 C1.65237042,14.9511922 2.68372167,15.444919 3.34111745,16.6693614 Z M29.9687313,0.252945817 C30.0104229,4.61420114 30.0104229,8.97543177 29.9687313,13.3367056 C29.4184898,13.9417678 28.845496,14.5280683 28.2498126,15.0956073 C28.4085782,15.2316907 28.544029,15.3859803 28.6561025,15.5584761 C28.7054823,15.7518936 28.6846678,15.9370411 28.5935963,16.1139188 C27.6039367,17.0910658 26.6142145,18.0682745 25.6245549,19.0454215 C25.4370365,19.086586 25.2495181,19.086586 25.0619996,19.0454215 C24.9265488,18.9116833 24.7911606,18.7780068 24.6557098,18.6442685 C24.153723,19.1192954 23.6744884,19.6130222 23.2180686,20.1254489 C22.6340738,21.2894715 22.8007777,22.3386409 23.7181177,23.2729571 C23.7968755,23.6009152 23.6822392,23.837472 23.374334,23.9826894 C18.2597694,25.9985141 13.1342663,27.9837278 7.99782457,29.9382687 C7.51183936,29.8218109 7.37645107,29.5337831 7.59153468,29.0742469 C10.2480455,26.4513233 12.9045562,23.8283998 15.561067,21.2054762 C15.836094,21.098893 16.1173716,21.0885864 16.4048998,21.1746183 C17.5534501,20.9866318 18.0118701,20.3283089 17.7800348,19.1997112 C17.2897992,18.2977958 16.5709786,18.0611772 15.6235731,18.4899789 C15.0545173,18.9248288 14.8461843,19.4905162 14.9985118,20.1871647 C14.9975742,20.3188664 14.9663211,20.442298 14.9047526,20.5574598 C12.2482418,23.1803834 9.59173103,25.8033069 6.93522026,28.4262304 C6.46979957,28.6385947 6.17808343,28.5049182 6.06013436,28.0250774 C8.04832952,22.9075376 10.0797789,17.8057353 12.1544826,12.7195471 C12.3236867,12.5013816 12.5424582,12.4293592 12.810797,12.5035417 C13.8438359,13.4618036 14.9689464,13.5852353 16.1861284,12.8738367 L17.4987572,11.5778039 L17.4987572,11.5778039 C17.2552333,11.4001857 17.0885294,11.1738737 16.9987081,10.8989296 C17.0441501,10.8125891 17.0754032,10.7200154 17.0924673,10.6212083 C18.082127,9.64406127 19.0718491,8.66685253 20.0615088,7.68970551 C20.2406514,7.59978551 20.4281698,7.57923414 20.624064,7.62798966 C20.7987687,7.73864617 20.955034,7.87238442 21.09286,8.02914267 C22.9077257,6.22691648 24.7307796,4.43718774 26.5621469,2.65986389 C26.9210571,2.39851579 27.2544024,2.10022458 27.5622451,1.76498409 C27.5479937,1.74037181 27.5271166,1.73008995 27.4997389,1.73412617 C28.0515431,1.13786468 28.6349754,0.572140183 29.2499107,0.0369403488 C29.5444397,-0.0521291974 29.7840257,0.019872831 29.9687313,0.252945817 Z" id="Combined-Shape" fill-opacity="0.5" fill="#000000" opacity="0.25"></path>
            <path d="M26.5621469,2.65986389 C26.9210571,2.39851579 27.2544024,2.10022458 27.5622451,1.76498409 C27.5479937,1.74037181 27.5271166,1.73008995 27.4997389,1.73412617 C28.0515431,1.13786468 28.6349754,0.572140183 29.2499107,0.0369403488 C29.5444397,-0.0521291974 29.7840257,0.019872831 29.9687313,0.252945817 C30.0104229,4.61420114 30.0104229,8.97543177 29.9687313,13.3367056 C29.4184898,13.9417678 28.845496,14.5280683 28.2498126,15.0956073 C28.4085782,15.2316907 28.544029,15.3859803 28.6561025,15.5584761 C28.7054823,15.7518936 28.6846678,15.9370411 28.5935963,16.1139188 C27.6039367,17.0910658 26.6142145,18.0682745 25.6245549,19.0454215 C25.4370365,19.086586 25.2495181,19.086586 25.0619996,19.0454215 C24.9265488,18.9116833 24.7911606,18.7780068 24.6557098,18.6442685 C24.153723,19.1192954 23.6744884,19.6130222 23.2180686,20.1254489 C22.6340738,21.2894715 22.8007777,22.3386409 23.7181177,23.2729571 C23.7968755,23.6009152 23.6822392,23.837472 23.374334,23.9826894 C18.2597694,25.9985141 13.1342663,27.9837278 7.99782457,29.9382687 C7.51183936,29.8218109 7.37645107,29.5337831 7.59153468,29.0742469 C10.2480455,26.4513233 12.9045562,23.8283998 15.561067,21.2054762 C15.836094,21.098893 16.1173716,21.0885864 16.4048998,21.1746183 C17.5534501,20.9866318 18.0118701,20.3283089 17.7800348,19.1997112 C17.2897992,18.2977958 16.5709786,18.0611772 15.6235731,18.4899789 C15.0545173,18.9248288 14.8461843,19.4905162 14.9985118,20.1871647 C14.9975742,20.3188664 14.9663211,20.442298 14.9047526,20.5574598 C12.2482418,23.1803834 9.59173103,25.8033069 6.93522026,28.4262304 C6.46979957,28.6385947 6.17808343,28.5049182 6.06013436,28.0250774 C8.04832952,22.9075376 10.0797789,17.8057353 12.1544826,12.7195471 C12.3236867,12.5013816 12.5424582,12.4293592 12.810797,12.5035417 C13.8438359,13.4618036 14.9689464,13.5852353 16.1861284,12.8738367 C16.6236713,12.4418258 17.0612143,12.0098149 17.4987572,11.5778039 C17.2552333,11.4001857 17.0885294,11.1738737 16.9987081,10.8989296 C17.0441501,10.8125891 17.0754032,10.7200154 17.0924673,10.6212083 C18.082127,9.64406127 19.0718491,8.66685253 20.0615088,7.68970551 C20.2406514,7.59978551 20.4281698,7.57923414 20.624064,7.62798966 C20.7987687,7.73864617 20.955034,7.87238442 21.09286,8.02914267 C22.9077257,6.22691648 24.7307796,4.43718774 26.5621469,2.65986389 Z M18.2800839,12.349252 C20.1448295,14.1904209 22.0096375,16.0316515 23.8743831,17.8728204 C23.3179534,18.3808653 22.8074658,18.9260631 22.3429827,19.5082904 C21.6477895,20.7366826 21.6374135,21.9709996 22.3117297,23.2112413 C18.3260884,24.8110395 14.3256957,26.3744871 10.3105516,27.9016457 C12.1939865,26.0111659 14.0899851,24.1288325 15.99861,22.2546456 C18.1376324,22.1799695 19.085663,21.0999421 18.8426391,19.0145636 C18.2278913,17.4922188 17.1132194,16.947021 15.4985609,17.3790936 C14.3323214,17.9217611 13.7802047,18.8371923 13.8421483,20.1254489 C11.9439619,22.0099423 10.0375248,23.8819691 8.12283684,25.7415911 C9.66955117,21.7772118 11.2530191,17.8273976 12.8733032,13.8921482 C14.343885,14.6399592 15.7398345,14.526834 17.0612143,13.5527111 C17.4675041,13.1515581 17.873794,12.750405 18.2800839,12.349252 Z M20.3115333,8.83144869 C22.702393,11.0994444 25.0671877,13.4034821 27.4059797,15.7436237 C27.4476713,15.7847881 27.4476713,15.8258909 27.4059797,15.8670554 C26.7496653,16.5150718 26.0933509,17.1630882 25.4370365,17.8111046 C25.3745303,17.8522691 25.3120242,17.8522691 25.2495181,17.8111046 C22.9472296,15.5379248 20.6448785,13.2646832 18.34259,10.9915034 C18.3008985,10.9297875 18.3008985,10.8680717 18.34259,10.8063558 C19.0115307,10.1561794 19.6678451,9.49785642 20.3115333,8.83144869 Z M28.9373801,1.73412617 C29.0101997,5.44727868 29.0206382,9.17082414 28.9686331,12.9046947 C28.468584,13.3984214 27.968535,13.8921482 27.4684859,14.385875 C25.5828633,12.524093 23.6973032,10.6623728 21.8116806,8.80059077 C24.1994775,6.45322849 26.5747106,4.09776292 28.9373801,1.73412617 Z" id="Shape" fill-opacity="0.5" fill="#000000" opacity="0.974"></path>
            <path d="M0.247063725,15.188181 C1.65237042,14.9511922 2.68372167,15.444919 3.34111745,16.6693614 C3.39250374,16.8105673 3.43417658,16.954612 3.46612972,17.1013723 C3.46761112,20.7034178 3.50928396,24.3034884 3.59114199,27.9016457 C3.7348936,28.3404454 4.01617121,28.6593312 4.43497482,28.8582414 C5.07915056,28.9670464 5.72503896,29.0493136 6.37266504,29.1051048 C6.49323937,29.3060516 6.52449244,29.522057 6.46642424,29.7531212 C6.43517117,29.8662463 6.36222651,29.9382687 6.24765276,29.9691266 C5.64340595,30.0102911 5.03920289,30.0102911 4.43497482,29.9691266 C3.42445688,29.7119567 2.788982,29.0845534 2.52853768,28.0867933 C2.52705629,24.4847478 2.48538345,20.8846772 2.40352541,17.2865199 C2.25314815,16.7882878 1.9301977,16.4488507 1.43468031,16.2682084 C0.992105611,16.223341 0.55456266,16.1616251 0.122051454,16.0830608 C0.00150837074,15.882114 -0.0297446972,15.6661086 0.0282922499,15.4350444 C0.0714027318,15.3208701 0.14432864,15.2385412 0.247063725,15.188181 Z" id="Path" fill-opacity="0.5" fill="#000000" opacity="0.987"></path>
            <path d="M10.3105516,27.9016457 C12.1939865,26.0111659 14.0899851,24.1288325 15.99861,22.2546456 C18.1376324,22.1799695 19.085663,21.0999421 18.8426391,19.0145636 C18.2278913,17.4922188 17.1132194,16.947021 15.4985609,17.3790936 C14.3323214,17.9217611 13.7802047,18.8371923 13.8421483,20.1254489 C11.9439619,22.0099423 10.0375248,23.8819691 8.12283684,25.7415911 C9.66955117,21.7772118 11.2530191,17.8273976 12.8733032,13.8921482 C14.343885,14.6399592 15.7398345,14.526834 17.0612143,13.5527111 C17.4675041,13.1515581 17.873794,12.750405 18.2800839,12.349252 C20.1448295,14.1904209 22.0096375,16.0316515 23.8743831,17.8728204 C23.3179534,18.3808653 22.8074658,18.9260631 22.3429827,19.5082904 C21.6477895,20.7366826 21.6374135,21.9709996 22.3117297,23.2112413 C18.3260884,24.8110395 14.3256957,26.3744871 10.3105516,27.9016457 Z" id="Path" fill="#FFFFFF"></path>
        </g>
    </g>
</svg>