<?xml version="1.0" encoding="UTF-8"?>
<svg width="30px" height="30px" viewBox="0 0 30 30" version="1.1" xmlns="http://www.w3.org/2000/svg" xmlns:xlink="http://www.w3.org/1999/xlink">
    <title>settings</title>
    <g id="Page-1" stroke="none" stroke-width="1" fill="none" fill-rule="evenodd">
        <g id="settings" transform="translate(15.000000, 15.000000) rotate(90.000000) translate(-15.000000, -15.000000) ">
            <path d="M4.00310815,0.0336016742 C5.25052423,-0.140007378 6.07321039,0.359120207 6.47116038,1.53098443 C6.491967,4.67132674 6.5128361,7.81169401 6.53364272,10.9520176 C8.60168304,12.1715735 9.37234017,13.9601348 8.84548912,16.3176392 C8.45909836,17.5560995 7.68850372,18.4711251 6.53364272,19.0628409 C6.5128361,22.2031645 6.491967,25.3435505 6.47116038,28.483874 C6.30583212,29.0959293 5.94131018,29.5430852 5.37771952,29.8252794 C4.33265873,30.2049907 3.46832184,29.9657838 2.78470261,29.1077835 C2.67693308,28.9097547 2.59362538,28.7018056 2.53477327,28.483874 C2.51394791,25.3435505 2.4931163,22.2031645 2.47229094,19.0628409 C0.404219369,17.843285 -0.366394014,16.0547237 0.160444539,13.6972193 C0.546841547,12.458759 1.31746118,11.5437334 2.47229094,10.9520176 C2.4931163,7.81169401 2.51394791,4.67132674 2.53477327,1.53098443 C2.74402661,0.750180431 3.23347574,0.251052846 4.00310815,0.0336016742 Z M4.19055515,1.09424779 C4.92831532,0.989268784 5.35528836,1.30122352 5.47144302,2.03011202 C5.50268419,4.87922586 5.51311874,7.7284021 5.50268419,10.5776719 C4.83620387,10.4945048 4.16972979,10.4945048 3.50324947,10.5776719 C3.49283366,7.7284021 3.50324947,4.87922586 3.53449063,2.03011202 C3.57361082,1.58654981 3.792299,1.27459507 4.19055515,1.09424779 Z M3.50324947,19.4371866 C4.16972979,19.5203537 4.83620387,19.5203537 5.50268419,19.4371866 C5.51311874,22.2864564 5.50268419,25.1356638 5.47144302,27.9847465 C5.27231182,28.8484867 4.76203733,29.1084074 3.94062581,28.7646333 C3.69806939,28.5609893 3.56268891,28.3010686 3.53449063,27.9847465 C3.50324947,25.1356638 3.49283366,22.2864564 3.50324947,19.4371866 Z" id="Shape" fill-opacity="0.5" fill="#000000" opacity="0.99"></path>
            <path d="M14.5001404,0.0336016742 C15.7475378,-0.140007378 16.5702427,0.359120207 16.9681927,1.53098443 C16.9889993,2.17568882 17.0098684,2.82039944 17.030675,3.46510382 C19.0987153,4.68467841 19.8693725,6.473221 19.3425214,8.83072537 C18.9561307,10.0691857 18.185536,10.9842113 17.030675,11.5759271 C17.0098684,17.2118886 16.9889993,22.8479125 16.9681927,28.483874 C16.8028644,29.0959293 16.4383425,29.5430852 15.8747518,29.8252794 C14.8296723,30.2049907 13.9653541,29.9657838 13.2817349,29.1077835 C13.1739529,28.9097547 13.0906639,28.7018056 13.0318056,28.483874 C13.0109989,22.8479125 12.9901298,17.2118886 12.9693232,11.5759271 C10.9012829,10.3563712 10.1306258,8.56780991 10.6574768,6.21030554 C11.0438676,4.9718577 11.8144622,4.05679462 12.9693232,3.46510382 C12.9901298,2.82039944 13.0109989,2.17568882 13.0318056,1.53098443 C13.2410589,0.750180431 13.730483,0.251052846 14.5001404,0.0336016742 Z M14.6875874,1.09424779 C15.4253789,0.989268784 15.8523207,1.30122352 15.9684753,2.03011202 C15.999654,2.38305137 16.0100886,2.73660216 15.9997165,3.09075814 C15.3332174,3.00757228 14.6667808,3.00757228 14.0002818,3.09075814 C13.9815371,2.62933964 14.0127782,2.17180186 14.0940053,1.71815728 C14.2203445,1.43615019 14.4182261,1.22818244 14.6875874,1.09424779 Z M14.0002818,11.9502728 C14.6667808,12.0334399 15.3332174,12.0334399 15.9997165,11.9502728 C16.010151,17.2951181 15.9997165,22.6399635 15.9684753,27.9847465 C15.7693441,28.8484867 15.2590509,29.1084074 14.4376581,28.7646333 C14.1951017,28.5609893 14.0597025,28.3010686 14.0315229,27.9847465 C14.0002818,22.6399635 13.9898472,17.2951181 14.0002818,11.9502728 Z" id="Shape" fill-opacity="0.5" fill="#000000" opacity="0.99"></path>
            <path d="M24.9971727,0.0336016742 C26.2445701,-0.140007378 27.067275,0.359120207 27.465225,1.53098443 C27.4860316,6.83421503 27.5069007,12.1374456 27.5277073,17.4406762 C29.5957476,18.6602321 30.3664048,20.4487934 29.8395537,22.8062978 C29.4531629,24.0447581 28.6825683,24.9597837 27.5277073,25.5514995 C27.5069007,26.5289785 27.4860316,27.5063951 27.465225,28.483874 C27.0681497,29.6654338 26.2454448,30.1542045 24.9971727,29.9500613 C24.2161435,29.7524692 23.7267194,29.2637609 23.5288379,28.483874 C23.5080312,27.5063951 23.4871621,26.5289785 23.4663555,25.5514995 C21.3983152,24.3319436 20.6276581,22.5433823 21.1545091,20.1858779 C21.5408999,18.9474176 22.3114945,18.032392 23.4663555,17.4406762 C23.4871621,12.1374456 23.5080312,6.83421503 23.5288379,1.53098443 C23.7380912,0.750180431 24.2275153,0.251052846 24.9971727,0.0336016742 Z M25.1846197,1.09424779 C25.9224112,0.989268784 26.3493529,1.30122352 26.4655076,2.03011202 C26.4967488,7.04216406 26.5071833,12.0542161 26.4967488,17.0663305 C25.8302497,16.9831634 25.1638131,16.9831634 24.4973141,17.0663305 C24.4868795,12.0542161 24.4973141,7.04216406 24.5285552,2.03011202 C24.5676692,1.58654981 24.7863573,1.27459507 25.1846197,1.09424779 Z M24.4973141,25.9258452 C25.1638131,26.0090123 25.8302497,26.0090123 26.4967488,25.9258452 C26.5216167,26.7193956 26.4903756,27.5097018 26.4030253,28.2967012 C26.0721813,28.9345239 25.5827572,29.0905012 24.9346904,28.7646333 C24.7718614,28.6437197 24.6573313,28.4877423 24.5910376,28.2967012 C24.5036873,27.5097018 24.4724461,26.7193956 24.4973141,25.9258452 Z" id="Shape" fill-opacity="0.5" fill="#000000" opacity="0.99"></path>
            <path d="M24.9971727,0.0336016742 C26.2445701,-0.140007378 27.067275,0.359120207 27.465225,1.53098443 C27.4860316,6.83421503 27.5069007,12.1374456 27.5277073,17.4406762 C29.5957476,18.6602321 30.3664048,20.4487934 29.8395537,22.8062978 C29.4531629,24.0447581 28.6825683,24.9597837 27.5277073,25.5514995 C27.5069007,26.5289785 27.4860316,27.5063951 27.465225,28.483874 C27.0681497,29.6654338 26.2454448,30.1542045 24.9971727,29.9500613 C24.2161435,29.7524692 23.7267194,29.2637609 23.5288379,28.483874 C23.5080312,27.5063951 23.4871621,26.5289785 23.4663555,25.5514995 C21.3983152,24.3319436 20.6276581,22.5433823 21.1545091,20.1858779 C21.5408999,18.9474176 22.3114945,18.032392 23.4663555,17.4406762 C23.4871621,12.1374456 23.5080312,6.83421503 23.5288379,1.53098443 C23.7380912,0.750180431 24.2275153,0.251052846 24.9971727,0.0336016742 Z M14.5001404,0.0336016742 C15.7475378,-0.140007378 16.5702427,0.359120207 16.9681927,1.53098443 C16.9889993,2.17568882 17.0098684,2.82039944 17.030675,3.46510382 C19.0987153,4.68467841 19.8693725,6.473221 19.3425214,8.83072537 C18.9561307,10.0691857 18.185536,10.9842113 17.030675,11.5759271 C17.0098684,17.2118886 16.9889993,22.8479125 16.9681927,28.483874 C16.8028644,29.0959293 16.4383425,29.5430852 15.8747518,29.8252794 C14.8296723,30.2049907 13.9653541,29.9657838 13.2817349,29.1077835 C13.1739529,28.9097547 13.0906639,28.7018056 13.0318056,28.483874 C13.0109989,22.8479125 12.9901298,17.2118886 12.9693232,11.5759271 C10.9012829,10.3563712 10.1306258,8.56780991 10.6574768,6.21030554 C11.0438676,4.9718577 11.8144622,4.05679462 12.9693232,3.46510382 C12.9901298,2.82039944 13.0109989,2.17568882 13.0318056,1.53098443 C13.2410589,0.750180431 13.730483,0.251052846 14.5001404,0.0336016742 Z M4.00310815,0.0336016742 C5.25052423,-0.140007378 6.07321039,0.359120207 6.47116038,1.53098443 C6.491967,4.67132674 6.5128361,7.81169401 6.53364272,10.9520176 C8.60168304,12.1715735 9.37234017,13.9601348 8.84548912,16.3176392 C8.45909836,17.5560995 7.68850372,18.4711251 6.53364272,19.0628409 C6.5128361,22.2031645 6.491967,25.3435505 6.47116038,28.483874 C6.30583212,29.0959293 5.94131018,29.5430852 5.37771952,29.8252794 C4.33265873,30.2049907 3.46832184,29.9657838 2.78470261,29.1077835 C2.67693308,28.9097547 2.59362538,28.7018056 2.53477327,28.483874 C2.51394791,25.3435505 2.4931163,22.2031645 2.47229094,19.0628409 C0.404219369,17.843285 -0.366394014,16.0547237 0.160444539,13.6972193 C0.546841547,12.458759 1.31746118,11.5437334 2.47229094,10.9520176 C2.4931163,7.81169401 2.51394791,4.67132674 2.53477327,1.53098443 C2.74402661,0.750180431 3.23347574,0.251052846 4.00310815,0.0336016742 Z" id="Combined-Shape" fill-opacity="0.25" fill="#000000" opacity="0.99"></path>
            <path d="M14.5001404,4.02662236 C16.6171044,3.94785379 17.939668,4.92530782 18.4677687,6.95899692 C18.5857354,9.19022201 17.5547768,10.5316274 15.3748931,10.9832131 C13.4357539,11.0604531 12.1757351,10.1765605 11.5947119,8.33159778 C11.3208518,6.04783952 12.289328,4.61287266 14.5001404,4.02662236 Z" id="Path" fill="#FFFFFF"></path>
            <path d="M4.00310815,11.5135361 C6.12007214,11.4347364 7.44263573,12.4122154 7.97073642,14.4459107 C8.08870307,16.6771358 7.05774454,18.0185412 4.87786084,18.4701269 C2.93874656,18.5473669 1.67868405,17.6634743 1.09767957,15.8185116 C0.823831987,13.5347533 1.79230818,12.0997615 4.00310815,11.5135361 Z" id="Path" fill="#FFFFFF"></path>
            <path d="M24.9971727,18.0021948 C27.1141367,17.923395 28.4367003,18.900874 28.964801,20.9345693 C29.0827677,23.1657944 28.0518091,24.5071998 25.8719254,24.9587855 C23.9327862,25.0360255 22.6727674,24.1521329 22.0917442,22.3071702 C21.8178841,20.0234119 22.7863603,18.5884201 24.9971727,18.0021948 Z" id="Path" fill="#FFFFFF"></path>
        </g>
    </g>
</svg>