<?xml version="1.0" encoding="UTF-8"?>
<svg width="30px" height="30px" viewBox="0 0 30 30" version="1.1" xmlns="http://www.w3.org/2000/svg" xmlns:xlink="http://www.w3.org/1999/xlink">
    <title>tools</title>
    <g id="Page-1" stroke="none" stroke-width="1" fill="none" fill-rule="evenodd">
        <g id="tools" fill="#000000">
            <path d="M21.2695312,0 C21.3086133,0 21.3476367,0 21.3867188,0 C22.4054883,0.0453068555 23.274668,0.435931641 23.9941406,1.171875 C24.1841602,1.42993359 24.1841602,1.68383789 23.9941406,1.93359375 C22.8027539,3.12499805 21.6113086,4.3164082 20.4199219,5.5078125 C19.6232812,6.54796875 19.6037695,7.60265625 20.3613281,8.671875 C20.7031055,9.01365234 21.0449414,9.35548828 21.3867188,9.69726562 C22.335,10.3869141 23.3115234,10.4259961 24.3164062,9.81445312 C25.6445508,8.52539062 26.9726367,7.23632812 28.3007812,5.94726562 C28.4374805,5.90818359 28.5742383,5.90818359 28.7109375,5.94726562 C29.3980664,6.50689453 29.8277344,7.21980469 30,8.0859375 C30,8.49609375 30,8.90625 30,9.31640625 C29.9238281,9.52154297 29.8555078,9.73634766 29.7949219,9.9609375 C29.0044922,11.5419141 28.1841797,13.1044336 27.3339844,14.6484375 C25.6805859,16.4169727 23.6591016,17.0712891 21.2695312,16.6113281 C20.8372852,16.5447656 20.4173438,16.4373633 20.0097656,16.2890625 C18.7319531,16.7674219 17.589375,17.4607617 16.5820312,18.3691406 C12.929707,22.0214648 9.27732422,25.6738477 5.625,29.3261719 C5.2085332,29.6240039 4.7593125,29.8485937 4.27734375,30 C3.71093555,30 3.1445332,30 2.578125,30 C1.19395312,29.5728516 0.334575586,28.6549219 0,27.2460938 C0,26.8164258 0,26.3866992 0,25.9570312 C0.161356641,25.3024219 0.464091211,24.7164844 0.908203125,24.1992188 C4.61913867,20.4883008 8.33009766,16.7773242 12.0410156,13.0664062 C12.7819336,12.1517578 13.3580859,11.1360938 13.7695312,10.0195312 C13.3320117,8.65664063 13.2441211,7.26996094 13.5058594,5.859375 C13.8278906,4.32400195 14.6579297,3.16189453 15.9960938,2.37304688 C17.3632617,1.66992188 18.7304883,0.966796875 20.0976562,0.263671875 C20.4880664,0.136570313 20.8786523,0.0486795703 21.2695312,0 Z" id="Shape" fill-opacity="0.25" opacity="0.949"></path>
            <path d="M21.2695312,0 C21.3086133,0 21.3476367,0 21.3867188,0 C22.4054883,0.0453068555 23.274668,0.435931641 23.9941406,1.171875 C24.1841602,1.42993359 24.1841602,1.68383789 23.9941406,1.93359375 C22.8027539,3.12499805 21.6113086,4.3164082 20.4199219,5.5078125 C19.6232812,6.54796875 19.6037695,7.60265625 20.3613281,8.671875 C20.7031055,9.01365234 21.0449414,9.35548828 21.3867188,9.69726562 C22.335,10.3869141 23.3115234,10.4259961 24.3164062,9.81445312 C25.6445508,8.52539062 26.9726367,7.23632812 28.3007812,5.94726562 C28.4374805,5.90818359 28.5742383,5.90818359 28.7109375,5.94726562 C29.3980664,6.50689453 29.8277344,7.21980469 30,8.0859375 C30,8.49609375 30,8.90625 30,9.31640625 C29.9238281,9.52154297 29.8555078,9.73634766 29.7949219,9.9609375 C29.0044922,11.5419141 28.1841797,13.1044336 27.3339844,14.6484375 C25.6805859,16.4169727 23.6591016,17.0712891 21.2695312,16.6113281 C20.8372852,16.5447656 20.4173438,16.4373633 20.0097656,16.2890625 C18.7319531,16.7674219 17.589375,17.4607617 16.5820312,18.3691406 C12.929707,22.0214648 9.27732422,25.6738477 5.625,29.3261719 C5.2085332,29.6240039 4.7593125,29.8485937 4.27734375,30 C3.71093555,30 3.1445332,30 2.578125,30 C1.19395312,29.5728516 0.334575586,28.6549219 0,27.2460938 C0,26.8164258 0,26.3866992 0,25.9570312 C0.161356641,25.3024219 0.464091211,24.7164844 0.908203125,24.1992188 C4.61913867,20.4883008 8.33009766,16.7773242 12.0410156,13.0664062 C12.7819336,12.1517578 13.3580859,11.1360938 13.7695312,10.0195312 C13.3320117,8.65664063 13.2441211,7.26996094 13.5058594,5.859375 C13.8278906,4.32400195 14.6579297,3.16189453 15.9960938,2.37304688 C17.3632617,1.66992188 18.7304883,0.966796875 20.0976562,0.263671875 C20.4880664,0.136570313 20.8786523,0.0486795703 21.2695312,0 Z M21.2109375,1.0546875 C21.8031445,1.0567793 22.3304883,1.23256055 22.7929687,1.58203125 C21.7976953,2.60660742 20.7918164,3.62223633 19.7753906,4.62890625 C18.6643359,5.90496094 18.469043,7.31121094 19.1894531,8.84765625 C19.704668,9.57773437 20.3199023,10.2124805 21.0351562,10.7519531 C22.4557617,11.5481836 23.8229883,11.4700781 25.1367187,10.5175781 C26.2402148,9.41408203 27.3437695,8.31052734 28.4472656,7.20703125 C29.0029102,7.94320312 29.1200977,8.74394531 28.7988281,9.609375 C28.0129687,11.1225586 27.212168,12.6264844 26.3964844,14.1210937 C25.5915234,14.9678906 24.6052148,15.4659375 23.4375,15.6152344 C21.530332,15.8125195 19.8116016,15.3437695 18.28125,14.2089844 C17.2300195,13.2946289 16.2827344,12.2888086 15.4394531,11.1914062 C14.3254687,9.31716797 14.1106641,7.34449219 14.7949219,5.2734375 C15.2112891,4.25160352 15.9241992,3.51918164 16.9335937,3.07617187 C18.1054687,2.47070508 19.2773437,1.86523242 20.4492187,1.25976562 C20.7081445,1.18052344 20.9620312,1.11216797 21.2109375,1.0546875 Z M14.296875,11.3085938 C14.5652344,11.7244336 14.848418,12.1345898 15.1464844,12.5390625 C15.9375,13.3300781 16.7285156,14.1210938 17.5195312,14.9121094 L18.6914062,15.7324219 L18.6914062,15.7324219 C17.8232227,16.1370117 17.0224219,16.6448437 16.2890625,17.2558594 C12.4983984,21.0660938 8.68980469,24.8551172 4.86328125,28.6230469 C3.4989668,29.3995312 2.33685937,29.1748828 1.37695312,27.9492188 C0.871265625,27.0492188 0.871265625,26.1507422 1.37695312,25.2539062 C5.08627734,21.4859766 8.81671875,17.7359766 12.5683594,14.0039062 C13.2978516,13.205625 13.8740039,12.307207 14.296875,11.3085938 Z" id="Shape" fill-opacity="0.5" opacity="0.949"></path>
            <path d="M3.10546875,25.078125 C4.46239453,24.9799219 5.07762891,25.6049414 4.95117188,26.953125 C4.61634375,27.7110352 4.04016797,28.0528711 3.22265625,27.9785156 C2.363625,27.6973242 1.98276563,27.1016602 2.08007813,26.1914062 C2.25323438,25.657207 2.5950293,25.2861328 3.10546875,25.078125 Z M3.33984375,26.0742187 C2.98372852,26.3327344 2.96419922,26.615918 3.28125,26.9238281 C3.58777734,27.0248437 3.81238477,26.9369531 3.95507813,26.6601562 C3.99398438,26.2207031 3.78890625,26.0253516 3.33984375,26.0742187 Z" id="Shape" fill-opacity="0.5" opacity="0.984"></path>
        </g>
    </g>
</svg>