<?xml version="1.0" encoding="UTF-8"?>
<svg width="32px" height="30px" viewBox="0 0 32 30" version="1.1" xmlns="http://www.w3.org/2000/svg" xmlns:xlink="http://www.w3.org/1999/xlink">
    <title>users</title>
    <g id="Page-1" stroke="none" stroke-width="1" fill="none" fill-rule="evenodd">
        <g id="users" transform="translate(1.000000, 0.000000)">
            <line x1="0" y1="29.5" x2="30" y2="29.5" id="Line" stroke-opacity="0.5" stroke="#000000" stroke-linecap="square"></line>
            <path d="M14.3085938,0 C14.9726367,0 15.6367383,0 16.3007813,0 C19.6652344,0.522827344 22.0382813,2.33923242 23.4199219,5.44921875 C23.7350977,6.26068359 23.9303906,7.10050781 24.0058594,7.96875 C24.0449414,9.80466797 24.0449414,11.6406445 24.0058594,13.4765625 C23.7593555,14.6118164 23.0660156,15.2758594 21.9257813,15.46875 C21.4859766,17.4024609 20.4215039,18.8868164 18.7324219,19.921875 C18.7033008,20.0769141 18.6935156,20.2331836 18.703125,20.390625 C20.0180859,20.5023633 21.3071484,20.7464648 22.5703125,21.1230469 C24.1280859,21.8019141 25.231582,22.9249219 25.8808594,24.4921875 C26.4751172,26.3237695 27.0513281,28.1597461 27.609375,30 C19.40625,30 11.203125,30 3,30 C3.55805859,28.1597461 4.13422852,26.3237695 4.72851563,24.4921875 C5.60668359,22.4816016 7.12037109,21.2414062 9.26953125,20.7714844 C10.1454492,20.6189648 11.0243555,20.4920508 11.90625,20.390625 C11.9158594,20.2331836 11.9060742,20.0769141 11.8769531,19.921875 C10.1878711,18.8868164 9.12339844,17.4024609 8.68359375,15.46875 C7.54335938,15.2758594 6.85001953,14.6118164 6.60351563,13.4765625 C6.56443359,11.6406445 6.56443359,9.80466797 6.60351563,7.96875 C7.09623047,4.12091602 9.17630859,1.57208789 12.84375,0.322265625 C13.3347656,0.189941602 13.8230859,0.0825199805 14.3085938,0 Z" id="Shape" fill-opacity="0.25" fill="#000000" opacity="0.944"></path>
            <path d="M14.3085938,0 C14.9726367,0 15.6367383,0 16.3007812,0 C19.6652344,0.522827344 22.0382813,2.33923242 23.4199219,5.44921875 C23.7350977,6.26068359 23.9303906,7.10050781 24.0058594,7.96875 C24.0449414,9.80466797 24.0449414,11.6406445 24.0058594,13.4765625 C23.7593555,14.6118164 23.0660156,15.2758594 21.9257813,15.46875 C21.4859766,17.4024609 20.4215039,18.8868164 18.7324219,19.921875 C18.7033008,20.0769141 18.6935156,20.2331836 18.703125,20.390625 C20.0180859,20.5023633 21.3071484,20.7464648 22.5703125,21.1230469 C24.1280859,21.8019141 25.231582,22.9249219 25.8808594,24.4921875 C26.4751172,26.3237695 27.0513281,28.1597461 27.609375,30 C19.40625,30 11.203125,30 3,30 C3.55805859,28.1597461 4.13422852,26.3237695 4.72851562,24.4921875 C5.60668359,22.4816016 7.12037109,21.2414062 9.26953125,20.7714844 C10.1454492,20.6189648 11.0243555,20.4920508 11.90625,20.390625 C11.9158594,20.2331836 11.9060742,20.0769141 11.8769531,19.921875 C10.1878711,18.8868164 9.12339844,17.4024609 8.68359375,15.46875 C7.54335938,15.2758594 6.85001953,14.6118164 6.60351563,13.4765625 C6.56443359,11.6406445 6.56443359,9.80466797 6.60351563,7.96875 C7.09623047,4.12091602 9.17630859,1.57208789 12.84375,0.322265625 C13.3347656,0.189941602 13.8230859,0.0825199805 14.3085938,0 Z M14.71875,0.996012325 C18.609668,0.982072266 21.2561719,2.77894922 22.6582031,6.38671875 C22.7930273,6.84785156 22.8906445,7.31660156 22.9511719,7.79296875 C23.0370117,8.88544922 23.0565234,9.97921875 23.0097656,11.0742187 C22.7542969,10.8830273 22.4711133,10.7463281 22.1601563,10.6640625 C22.1015625,9.51240234 22.0820508,8.36003906 22.1015625,7.20703125 C21.0710742,7.33599609 20.319082,6.94541016 19.8457031,6.03515625 C19.734375,5.79303516 19.6855664,5.53913086 19.6992188,5.2734375 C19.3476563,5.2734375 18.9960938,5.2734375 18.6445313,5.2734375 C18.6006445,6.24984375 18.1123242,6.88464844 17.1796875,7.17773437 C15.4792383,7.18341797 13.7800195,7.22244141 12.0820313,7.29492187 C10.2418945,7.71914062 9.08953125,8.84214844 8.625,10.6640625 C8.25263672,10.7262891 7.91085938,10.8629883 7.59960938,11.0742187 C7.53972656,9.84017578 7.57880859,8.60970703 7.71679688,7.3828125 C8.45689453,4.02553125 10.4978906,1.94545312 13.8398438,1.14257812 C14.143418,1.10741016 14.4363867,1.05858398 14.71875,0.996012325 Z M19.1132812,7.03125 C19.5013477,7.47082031 19.9700977,7.81259766 20.5195312,8.05664062 C20.7110156,8.12402344 20.9063086,8.17289063 21.1054687,8.203125 C21.1301367,10.4113477 21.1008398,12.6183984 21.0175781,14.8242188 C20.5003711,17.4703711 18.928125,19.1012109 16.3007812,19.7167969 C13.6569727,20.0305078 11.6354883,19.0637109 10.2363281,16.8164062 C9.80033203,15.970957 9.56595703,15.0725391 9.53320312,14.1210938 C9.49412109,13.2421875 9.49412109,12.3632812 9.53320312,11.484375 C9.74285156,9.73177734 10.7096484,8.66730469 12.4335937,8.29101562 C14.115293,8.28808594 15.795,8.24900391 17.4726562,8.17382812 C18.1760742,8.00595703 18.7229297,7.62509766 19.1132812,7.03125 Z M8.390625,11.7773438 C8.46861328,12.185625 8.50763672,12.6153516 8.5078125,13.0664062 C8.48830078,13.4960742 8.46873047,13.9258008 8.44921875,14.3554688 C7.63880859,13.8874219 7.41416016,13.2233789 7.77539062,12.3632812 C7.93582031,12.1148437 8.14089844,11.9194922 8.390625,11.7773438 Z M22.1015625,11.7773438 C22.8519141,12.1061719 23.1351562,12.6725977 22.9511719,13.4765625 C22.8200977,13.8907617 22.5564258,14.1837305 22.1601562,14.3554688 C22.1016211,13.4969531 22.0820508,12.6376172 22.1015625,11.7773438 Z M12.9023437,20.390625 C14.4944531,21.0108984 16.0862109,21.0108984 17.6777344,20.390625 C17.7168164,20.4687305 17.7168164,20.5468945 17.6777344,20.625 C16.8956836,21.4168359 16.104668,22.1980664 15.3046875,22.96875 C14.504707,22.1980664 13.7136914,21.4168359 12.9316406,20.625 C12.9029297,20.5492383 12.8931445,20.4710742 12.9023437,20.390625 Z M12.2014761,21.3866555 C13.9473079,22.9491977 15.0057938,23.9648438 15.3769339,24.4335938 C16.1193082,23.6247783 17.1108511,22.6091322 18.3515625,21.3866555 C23.1718937,21.3843329 25.7890812,23.9221144 26.203125,29 L22.0135026,29 L22.0135026,26.0033267 L20.9988994,26.0033267 L20.9988994,29 L10.0066824,29 L10.0066824,26.0033267 L8.99975424,26.0033267 L8.99975424,29 C6.39409484,29 4.86292676,29 4.40625,29 C5.7451057,22.2976162 7.9092725,21.7557614 12.2014761,21.3866555 Z" id="Shape" fill-opacity="0.5" fill="#000000" opacity="0.944"></path>
            <path d="M8.78227845,11.7460938 C8.86026673,12.154375 8.89929017,12.5841016 8.89946595,13.0351562 C8.87995423,13.4648242 8.86038392,13.8945508 8.8408722,14.3242188 C8.03046204,13.8561719 7.80581361,13.1921289 8.16704408,12.3320312 C8.32747376,12.0835937 8.53255189,11.8882422 8.78227845,11.7460938 Z M19.5049347,7 C19.8930011,7.43957031 20.3617511,7.78134766 20.9111847,8.02539062 C21.1026691,8.09277344 21.297962,8.14164063 21.4971222,8.171875 C21.5217902,10.3800977 21.4924933,12.5871484 21.4092316,14.7929688 C20.8920245,17.4391211 19.3197785,19.0699609 16.6924347,19.6855469 C14.0486261,19.9992578 12.0271417,19.0324609 10.6279816,16.7851563 C10.1919855,15.939707 9.95761048,15.0412891 9.92485658,14.0898438 C9.88577454,13.2109375 9.88577454,12.3320312 9.92485658,11.453125 C10.134505,9.70052734 11.1013019,8.63605469 12.8252472,8.25976562 C14.5069464,8.25683594 16.1866535,8.21775391 17.8643097,8.14257812 C18.5677277,7.97470703 19.1145831,7.59384766 19.5049347,7 Z M22.493216,11.7460938 C23.2435675,12.0749219 23.5268097,12.6413477 23.3428253,13.4453125 C23.2117511,13.8595117 22.9480792,14.1524805 22.5518097,14.3242188 C22.4932745,13.4657031 22.4737042,12.6063672 22.493216,11.7460938 Z M13.2939972,20.359375 C14.8861066,20.9796484 16.4778644,20.9796484 18.0693878,20.359375 C18.1084699,20.4374805 18.1084699,20.5156445 18.0693878,20.59375 C17.287337,21.3855859 16.4963214,22.1668164 15.696341,22.9375 C14.8963605,22.1668164 14.1053449,21.3855859 13.3232941,20.59375 C13.2945831,20.5179883 13.284798,20.4398242 13.2939972,20.359375 Z" id="Combined-Shape" fill="#FFFFFF"></path>
        </g>
    </g>
</svg>